<svg xmlns="http://www.w3.org/2000/svg" xmlns:xlink="http://www.w3.org/1999/xlink" version="1.1" width="5952.76pt" height="8418.9pt" viewBox="0 0 5952.76 8418.9">
<defs>
<clipPath id="clip_1">
<path transform="matrix(10,0,0,-10,0,8418.9)" d="M0 841.89H595.276V0H0Z"/>
</clipPath>
</defs>
<g id="layer_1" data-name="Layer 1">
<path transform="matrix(10,0,0,-10,0,8418.9)" d="M482.499 236.084H112.77701V605.80599H482.499Z" fill="#031538"/>
<g clip-path="url(#clip_1)">
<path transform="matrix(10,0,0,-10,2400.137,5075.7956)" d="M0 0C0-1.075-.136-2.042-.408-2.9-.681-3.76-1.04-4.518-1.486-5.174-1.934-5.83-2.457-6.389-3.058-6.849-3.658-7.31-4.279-7.687-4.922-7.98-5.564-8.273-6.217-8.49-6.88-8.63-7.544-8.77-8.168-8.839-8.755-8.839H-29.764V-3.393H-8.755C-7.708-3.393-6.895-3.086-6.314-2.472-5.735-1.857-5.445-1.033-5.445 0-5.445 .503-5.522 .964-5.676 1.383-5.83 1.802-6.05 2.164-6.336 2.472-6.622 2.778-6.972 3.017-7.383 3.184-7.795 3.352-8.252 3.436-8.755 3.436H-21.28C-22.16 3.436-23.109 3.593-24.129 3.906-25.148 4.221-26.095 4.727-26.967 5.425-27.84 6.123-28.566 7.038-29.146 8.169-29.725 9.3-30.015 10.683-30.015 12.316-30.015 13.95-29.725 15.329-29.146 16.453-28.566 17.577-27.84 18.491-26.967 19.196-26.095 19.901-25.148 20.411-24.129 20.726-23.109 21.04-22.16 21.197-21.28 21.197H-2.743V15.751H-21.28C-22.313 15.751-23.12 15.438-23.699 14.809-24.279 14.181-24.568 13.35-24.568 12.316-24.568 11.269-24.279 10.441-23.699 9.834-23.12 9.227-22.313 8.923-21.28 8.923H-8.755-8.713C-8.127 8.909-7.505 8.829-6.849 8.682-6.192 8.535-5.54 8.309-4.891 8.001-4.241 7.694-3.623 7.307-3.037 6.839-2.45 6.371-1.931 5.809-1.477 5.152-1.022 4.496-.663 3.742-.397 2.891-.133 2.039 0 1.075 0 0" fill="#ffffff"/>
<path transform="matrix(10,0,0,-10,2770.498,4985.3068)" d="M0 0C0 1.075-.172 2.049-.514 2.922-.855 3.794-1.338 4.541-1.959 5.163-2.58 5.784-3.327 6.266-4.2 6.608-5.072 6.95-6.032 7.121-7.08 7.121H-14.453C-15.514 7.121-16.481 6.95-17.354 6.608-18.227 6.266-18.977 5.784-19.605 5.163-20.233 4.541-20.719 3.794-21.061 2.922-21.403 2.049-21.574 1.075-21.574 0V-5.739C-21.574-6.814-21.403-7.789-21.061-8.661-20.719-9.534-20.233-10.281-19.605-10.902-18.977-11.523-18.227-12.006-17.354-12.348-16.481-12.689-15.514-12.86-14.453-12.86H-7.122C-6.061-12.86-5.094-12.689-4.221-12.348-3.349-12.006-2.598-11.523-1.969-10.902-1.341-10.281-.855-9.534-.514-8.661-.172-7.789 0-6.814 0-5.739ZM5.445-5.739C5.445-7.568 5.132-9.251 4.503-10.787 3.875-12.323 3.002-13.649 1.885-14.767 .768-15.884-.556-16.753-2.084-17.375-3.613-17.996-5.278-18.307-7.08-18.307H-14.453C-16.254-18.307-17.923-17.996-19.459-17.375-20.995-16.753-22.321-15.884-23.438-14.767-24.556-13.649-25.432-12.323-26.067-10.787-26.702-9.251-27.02-7.568-27.02-5.739V0C-27.02 1.814-26.702 3.494-26.067 5.037-25.432 6.58-24.556 7.907-23.438 9.017-22.321 10.127-20.995 10.996-19.459 11.625-17.923 12.253-16.254 12.567-14.453 12.567H-7.08C-5.278 12.567-3.613 12.253-2.084 11.625-.556 10.996 .768 10.127 1.885 9.017 3.002 7.907 3.875 6.58 4.503 5.037 5.132 3.494 5.445 1.814 5.445 0Z" fill="#ffffff"/>
<path transform="matrix(10,0,0,-10,3243.281,5140.9318)" d="M0 0C0-.392-.073-.754-.22-1.09-.366-1.425-.562-1.715-.807-1.959-1.051-2.203-1.341-2.395-1.676-2.534-2.011-2.674-2.367-2.744-2.744-2.744-3.079-2.744-3.418-2.682-3.76-2.556-4.102-2.43-4.405-2.228-4.671-1.948L-24.569 18.83V-2.325H-30.015V25.386C-30.015 25.944-29.857 26.45-29.544 26.904-29.229 27.358-28.828 27.696-28.339 27.92-27.823 28.13-27.292 28.182-26.747 28.077-26.203 27.973-25.735 27.718-25.344 27.312L-5.446 6.556V27.711H0Z" fill="#ffffff"/>
<path transform="matrix(10,0,0,-10,0,8418.9)" d="M342.576 325.472H337.13099V355.508H342.576Z" fill="#ffffff"/>
<path transform="matrix(10,0,0,-10,3822.715,5164.1838)" d="M0 0H-19.646C-20.149 0-20.69 .06-21.27 .178-21.85 .297-22.422 .481-22.987 .733-23.553 .984-24.095 1.31-24.61 1.707-25.128 2.105-25.585 2.587-25.982 3.152-26.381 3.718-26.698 4.374-26.936 5.121-27.174 5.868-27.292 6.709-27.292 7.646V22.391C-27.292 22.894-27.232 23.435-27.114 24.014-26.995 24.594-26.811 25.166-26.559 25.731-26.308 26.297-25.979 26.838-25.574 27.354-25.17 27.871-24.685 28.329-24.118 28.727-23.553 29.125-22.9 29.442-22.16 29.68-21.42 29.917-20.582 30.036-19.646 30.036H0V24.59H-19.646C-20.358 24.59-20.903 24.401-21.28 24.024-21.657 23.647-21.846 23.089-21.846 22.349V7.646C-21.846 6.946-21.654 6.405-21.27 6.021-20.886 5.638-20.345 5.446-19.646 5.446H0Z" fill="#ffffff"/>
<path transform="matrix(10,0,0,-10,2358.237,4414.6037)" d="M0 0H85.916C88.186 0 90.651 .271 93.241 .807 95.818 1.338 98.398 2.177 100.912 3.303 103.417 4.425 105.876 5.89 108.223 7.656 110.497 9.369 112.511 11.479 114.21 13.928 115.927 16.398 117.333 19.308 118.388 22.574 119.439 25.824 119.971 29.565 119.971 33.694 119.971 37.824 119.452 41.556 118.426 44.787 117.404 48.009 116.004 50.892 114.268 53.357 112.527 55.827 110.508 57.969 108.268 59.723 105.982 61.511 103.54 63.014 101.008 64.19 98.47 65.367 95.89 66.248 93.34 66.807 90.764 67.371 88.301 67.684 86.022 67.738L85.916 67.737H32.903C27.708 67.737 23.539 69.315 20.513 72.428 17.509 75.516 15.985 79.687 15.985 84.823 15.985 89.883 17.497 94.056 20.479 97.227 23.507 100.449 27.688 102.084 32.903 102.084H119.971V118.692H32.903C29.491 118.692 25.727 118.077 21.715 116.864 17.785 115.676 14.078 113.715 10.697 111.037 7.351 108.384 4.516 104.873 2.271 100.602 .058 96.392-1.064 91.083-1.064 84.823-1.064 78.561 .059 73.236 2.274 68.996 4.517 64.702 7.347 61.196 10.686 58.576 14.067 55.922 17.777 53.973 21.714 52.783 25.726 51.57 29.49 50.955 32.903 50.955H85.916C88.414 50.955 90.742 50.532 92.833 49.698 94.973 48.843 96.821 47.606 98.328 46.022 99.812 44.458 100.965 42.596 101.756 40.485 102.531 38.413 102.922 36.129 102.922 33.694 102.922 28.623 101.403 24.472 98.405 21.354 95.377 18.205 91.175 16.608 85.916 16.608H0ZM85.916-6H-3L-6-3V19.608L-3 22.608H85.916C89.531 22.608 92.201 23.558 94.08 25.513 95.993 27.502 96.922 30.178 96.922 33.694 96.922 35.41 96.658 36.987 96.136 38.383 95.624 39.752 94.917 40.9 93.978 41.889 93.059 42.855 91.958 43.587 90.609 44.126 89.229 44.676 87.65 44.955 85.916 44.955H32.903C28.901 44.955 24.553 45.656 19.978 47.04 15.324 48.446 10.951 50.74 6.982 53.855 2.968 57.004-.405 61.164-3.044 66.218-5.711 71.324-7.064 77.583-7.064 84.823-7.064 92.066-5.71 98.313-3.04 103.393-.404 108.409 2.964 112.563 6.971 115.739 10.947 118.889 15.323 121.2 19.978 122.607 24.553 123.991 28.902 124.692 32.903 124.692H122.971L125.971 121.692V99.084L122.971 96.084H32.903C29.361 96.084 26.727 95.113 24.85 93.117 22.922 91.066 21.985 88.354 21.985 84.823 21.985 81.254 22.91 78.568 24.814 76.612 26.695 74.677 29.34 73.737 32.903 73.737H86.092C88.826 73.673 91.672 73.313 94.625 72.667 97.601 72.015 100.598 70.994 103.534 69.632 106.482 68.263 109.319 66.519 111.966 64.448 114.669 62.332 117.093 59.763 119.172 56.813 121.263 53.845 122.936 50.41 124.145 46.602 125.357 42.783 125.971 38.44 125.971 33.694 125.971 28.938 125.34 24.576 124.097 20.729 122.86 16.9 121.192 13.461 119.139 10.506 117.076 7.532 114.618 4.961 111.833 2.863 109.127 .826 106.278-.868 103.364-2.174 100.452-3.478 97.454-4.451 94.454-5.069 91.466-5.687 88.593-6 85.916-6" fill="#57f3ce"/>
</g>
</g>
</svg>
