<?xml version="1.0" encoding="UTF-8"?>
<svg version="1.1" xmlns="http://www.w3.org/2000/svg" width="1024" height="1024">
<path d="M0 0 C1.36667475 -0.00445668 1.36667475 -0.00445668 2.76095909 -0.0090034 C5.79124604 -0.01762319 8.82149318 -0.01919292 11.85179138 -0.02069092 C14.03402794 -0.02532388 16.2162637 -0.03034918 18.39849854 -0.03573608 C24.31207413 -0.04881655 30.2256384 -0.05529659 36.1392262 -0.05974674 C39.83985815 -0.06268468 43.54048706 -0.06679085 47.24111748 -0.07125092 C58.83714106 -0.08491475 70.43315762 -0.0945867 82.02918869 -0.09845281 C84.00693855 -0.09911595 84.00693855 -0.09911595 86.02464294 -0.09979248 C87.01555979 -0.10012463 87.01555979 -0.10012463 88.02649515 -0.10046348 C99.38048919 -0.10465143 110.73440024 -0.12480702 122.08836704 -0.1494534 C132.43181488 -0.17112124 142.77523398 -0.18115982 153.11870426 -0.18249393 C159.28617265 -0.18353835 165.4535445 -0.18936869 171.62098885 -0.20731354 C177.42819795 -0.22388247 183.23523887 -0.22590713 189.0424633 -0.21717453 C191.16271798 -0.21640885 193.28298203 -0.22068431 195.4032135 -0.23063278 C220.79615151 -0.34270434 242.97832441 3.75636239 262.17381287 21.76544189 C274.26985321 34.0023679 282.56735739 49.59348658 282.6796875 67.04995728 C282.69437073 68.7915361 282.69437073 68.7915361 282.70935059 70.56829834 C282.71510605 71.83008911 282.72086151 73.09187988 282.72679138 74.39190674 C282.73638577 75.74706307 282.74639673 77.10221651 282.75679016 78.45736694 C282.78384604 82.14712255 282.80489581 85.83689069 282.82479215 89.52669096 C282.84691683 93.45790926 282.87423293 97.38909199 282.90084839 101.32028198 C282.94520255 107.98346249 282.98587848 114.64665743 283.02415466 121.30987549 C283.0626594 128.0097684 283.10407666 134.70963289 283.14915466 141.40948486 C283.37195004 174.54908312 283.56362321 207.68906505 283.60531425 240.82945633 C283.60879531 243.56166103 283.61440858 246.2938468 283.62205696 249.02604294 C283.71754392 287.60484693 283.71754392 287.60484693 280.39646912 297.89044189 C280.17765076 298.59306152 279.9588324 299.29568115 279.73338318 300.01959229 C273.89248939 317.77518029 260.82336849 331.46173288 244.52146912 340.14044189 C228.30145168 348.30813204 211.67770446 348.58345861 193.93748474 348.52862549 C191.70495346 348.53269916 189.47242419 348.53804547 187.23989868 348.54455566 C181.22131773 348.55814046 175.20289241 348.55296733 169.18430901 348.54341841 C162.85906965 348.53577575 156.53384283 348.54288013 150.20860291 348.5475769 C138.91197711 348.55336893 127.61542968 348.54409819 116.31881958 348.52879889 C106.10882817 348.51539854 95.89893915 348.51772752 85.68894958 348.53155518 C73.78751942 348.54766641 61.88615125 348.55355573 49.9847064 348.54471838 C43.70110336 348.5400628 37.41757058 348.53935846 31.13397217 348.54932785 C25.22405356 348.55805092 19.31432659 348.55187875 13.40442848 348.53464508 C11.24708689 348.53070861 9.08972891 348.53176498 6.93239403 348.53843307 C-16.95227536 348.60540115 -39.37380085 345.44051726 -57.47853088 328.14044189 C-72.21826026 311.69528929 -78.64246275 293.75492572 -78.61897278 271.95889282 C-78.6219439 271.07973918 -78.62491502 270.20058553 -78.62797618 269.29479086 C-78.63659148 266.37272585 -78.6381653 263.45070215 -78.6396637 260.52862549 C-78.64429695 258.42358311 -78.64932228 256.31854156 -78.65470886 254.21350098 C-78.66778583 248.51072961 -78.67426859 242.80796999 -78.67871952 237.10518599 C-78.68165779 233.53655943 -78.685764 229.96793603 -78.69022369 226.39931107 C-78.7038861 215.21708993 -78.71355896 204.03487608 -78.71742558 192.85264719 C-78.72190368 179.97552579 -78.73944541 167.09851069 -78.76842618 154.2214216 C-78.79009062 144.24656376 -78.8001324 134.27173572 -78.8014667 124.29685462 C-78.80251129 118.34906965 -78.8083453 112.40138477 -78.82628632 106.45362473 C-78.84284956 100.85407312 -78.84488264 95.25469596 -78.83614731 89.65512848 C-78.83538134 87.61024379 -78.83966086 85.56534939 -78.84960556 83.52048874 C-78.91524065 69.17284693 -78.80171874 54.69230247 -71.72853088 41.76544189 C-71.37782532 41.09827148 -71.02711975 40.43110107 -70.66578674 39.74371338 C-67.79187423 34.41552758 -64.55699283 29.62937003 -60.47853088 25.14044189 C-59.8249762 24.39536377 -59.17142151 23.65028564 -58.49806213 22.88262939 C-43.0786448 6.31167087 -21.98077836 -0.02282475 0 0 Z M-47.22071838 38.00762939 C-56.15015237 49.15785525 -59.80519047 61.41488058 -59.73922729 75.50039673 C-59.74305284 76.38660505 -59.74687839 77.27281337 -59.75081986 78.18587649 C-59.76105596 81.1257091 -59.75717572 84.06534295 -59.75318909 87.00518799 C-59.75754076 89.12509846 -59.76272542 91.24500736 -59.76867676 93.36491394 C-59.78202883 99.10256565 -59.78264966 104.84015133 -59.78011346 110.57781553 C-59.7790412 115.37636041 -59.78393362 120.17489206 -59.78871888 124.97343409 C-59.7998009 136.29831921 -59.80025877 147.62317116 -59.79420471 158.94805908 C-59.78816499 170.61215256 -59.80047897 182.2761254 -59.82177478 193.9401983 C-59.83941508 203.97278401 -59.84538831 214.0053314 -59.84213704 224.03793204 C-59.84032796 230.02192761 -59.84292293 236.00583711 -59.85685158 241.98981857 C-59.86946484 247.61893256 -59.86745269 253.24785904 -59.85444069 258.87697029 C-59.852083 260.93601229 -59.85478044 262.99506763 -59.86306381 265.05409431 C-59.93453248 284.20898075 -57.63507296 299.43441523 -43.87696838 313.85528564 C-31.37572281 325.76608151 -16.12783031 329.30590426 0.73461914 329.27415466 C2.07656929 329.277553 2.07656929 329.277553 3.44562954 329.28101999 C6.42608225 329.28732068 9.40648902 329.28653315 12.38694763 329.28570557 C14.53125059 329.28869958 16.67555302 329.29210267 18.81985474 329.29588318 C24.6342552 329.30470449 30.44864094 329.30706056 36.26304746 329.30769897 C39.9008501 329.30841074 43.53864902 329.31054751 47.17645073 329.31319618 C59.88268648 329.32244471 72.58891175 329.32653185 85.29515076 329.32574463 C97.11362097 329.32514456 108.93204543 329.33568377 120.75050408 329.35148829 C130.91642297 329.36459533 141.08232697 329.36992717 151.24825424 329.36928922 C157.31116497 329.36903508 163.37403506 329.3718393 169.43693733 329.38246727 C175.14561139 329.39220112 180.85420641 329.39219139 186.56288338 329.38495064 C188.64807756 329.38391121 190.7332768 329.38622912 192.81846237 329.3923111 C215.14069309 329.45315724 233.6935233 328.39939281 250.77146912 312.32794189 C265.66294074 296.74454331 264.67264369 278.02412318 264.66673279 257.89654541 C264.6697289 255.85530537 264.67313246 253.81406589 264.6769104 251.77282715 C264.68570672 246.25425072 264.68808662 240.73568982 264.68872619 235.21710706 C264.68943895 231.76407477 264.69157752 228.31104638 264.6942234 224.85801506 C264.70346103 212.79712551 264.70756011 200.73624698 264.70677185 188.675354 C264.70617087 177.45490374 264.71673069 166.23450152 264.73251551 155.01406342 C264.74561093 145.35937925 264.75095494 135.70471075 264.75031644 126.05001777 C264.75006213 120.29297215 264.75287686 114.5359693 264.76349449 108.77893257 C264.77320967 103.36406445 264.77323126 97.94927972 264.76597786 92.53440857 C264.7649364 90.55438044 264.76726868 88.57434702 264.77333832 86.59432793 C264.92458508 66.81244085 264.92458508 66.81244085 258.39646912 48.39044189 C258.02393005 47.68145752 257.65139099 46.97247314 257.26756287 46.24200439 C256.36714627 44.53352162 255.44654591 42.83569891 254.52146912 41.14044189 C253.86146912 41.14044189 253.20146912 41.14044189 252.52146912 41.14044189 C252.26881287 40.55907471 252.01615662 39.97770752 251.75584412 39.37872314 C246.450987 29.75947274 234.14766351 24.41183241 224.21678162 21.00762939 C216.64137707 19.22989175 208.94983697 18.99163863 201.19515991 19 C200.31247942 18.99702888 199.42979893 18.99405776 198.52037054 18.9909966 C195.59226004 18.98239469 192.66419082 18.98080863 189.73606873 18.97930908 C187.62427179 18.97467486 185.51247569 18.9696494 183.40068054 18.96426392 C177.68337176 18.95119588 171.96607468 18.9447059 166.24875331 18.94025326 C162.66955266 18.9373134 159.09035514 18.93320689 155.51115608 18.92874908 C144.29155873 18.91508873 133.07196862 18.905415 121.85236353 18.90154719 C108.94018199 18.89707029 96.02810651 18.87953319 83.1159572 18.8505466 C73.10877645 18.82886807 63.10162541 18.81883962 53.09442145 18.81750607 C47.12982027 18.81646244 41.16531899 18.81064921 35.20074272 18.79268646 C29.58393554 18.7760988 23.96730221 18.77410176 18.35047913 18.78282547 C16.30159601 18.78359016 14.25270311 18.77932921 12.20384407 18.76936722 C-10.26257529 18.66663188 -30.93951581 20.55826879 -47.22071838 38.00762939 Z " fill="#00C0D0" transform="translate(409.47853088378906,214.85955810546875)"/>
<path d="M0 0 C0.71542969 0.53109375 1.43085938 1.0621875 2.16796875 1.609375 C16.90990533 13.49708434 25.86654653 31.5809499 28.4296875 50.10546875 C30.41312256 69.96400757 27.06318699 90.58533024 14.68798828 106.70947266 C11.6635447 110.35624745 8.39074361 113.69440061 5 117 C4.01580078 117.99773437 4.01580078 117.99773437 3.01171875 119.015625 C-12.57241486 133.83223169 -34.03498388 139.53183343 -55.00878906 139.42358398 C-78.84649775 138.78638536 -99.51811061 129.07137041 -116 112 C-127.46846735 98.16236115 -133.23234549 81.61586743 -133.125 63.75 C-133.12016602 62.90808105 -133.11533203 62.06616211 -133.11035156 61.19873047 C-132.95872102 45.45644797 -130.22275116 32.67717609 -122 19 C-121.34 19 -120.68 19 -120 19 C-119.855625 18.38125 -119.71125 17.7625 -119.5625 17.125 C-119 15 -119 15 -118 13 C-117.34 13 -116.68 13 -116 13 C-115.835 12.319375 -115.67 11.63875 -115.5 10.9375 C-113.31008067 6.64890797 -109.87999001 3.80490944 -106 1 C-105.34 1 -104.68 1 -104 1 C-104 0.34 -104 -0.32 -104 -1 C-97.67067169 -6.57700505 -89.81236872 -9.20986832 -82 -12 C-80.64530655 -12.56123014 -79.2910511 -13.12352037 -77.9375 -13.6875 C-52.26272545 -23.04311143 -21.25070416 -15.99312254 0 0 Z " fill="#00273E" transform="translate(409,654)"/>
<path d="M0 0 C3.61110956 0.58027719 7.13058475 0.69416851 10.78515625 0.8203125 C30.75949209 1.87688946 47.42633865 12.55366627 61.16015625 26.5078125 C58.09426583 30.26410087 55.1306951 33.6335638 51.36987305 36.69824219 C43.67029007 43.26936729 39.42031759 49.03151854 38.21975708 59.2635498 C37.90687385 64.17519136 37.84549483 69.04896212 37.92993164 73.96923828 C37.97256689 77.74988814 37.82875026 81.49261692 37.66992188 85.26953125 C37.49914989 97.80792588 38.55489658 106.17091069 47.5209198 115.42523193 C51.03831646 118.6836375 54.66333279 121.76179718 58.47245789 124.67401123 C59.30786858 125.58174286 59.30786858 125.58174286 60.16015625 126.5078125 C59.83522562 130.67486095 57.46595255 132.75450747 54.55078125 135.515625 C34.77490343 151.99552319 10.44270274 157.20876385 -14.83984375 155.5078125 C-36.34831306 153.37075305 -57.37518961 143.50029129 -71.2265625 126.640625 C-84.86223084 108.61380923 -89.93194677 88.05070523 -87.18066406 65.65917969 C-85.46111019 54.80480379 -81.68777929 44.81225976 -75.83984375 35.5078125 C-75.17984375 35.5078125 -74.51984375 35.5078125 -73.83984375 35.5078125 C-73.55109375 34.7446875 -73.26234375 33.9815625 -72.96484375 33.1953125 C-71.83984375 30.5078125 -71.83984375 30.5078125 -69.83984375 27.5078125 C-69.17984375 27.5078125 -68.51984375 27.5078125 -67.83984375 27.5078125 C-67.59234375 26.9303125 -67.34484375 26.3528125 -67.08984375 25.7578125 C-65.65684387 23.17841271 -64.05559699 21.44659658 -61.83984375 19.5078125 C-61.17984375 19.5078125 -60.51984375 19.5078125 -59.83984375 19.5078125 C-59.83984375 18.8478125 -59.83984375 18.1878125 -59.83984375 17.5078125 C-57.9765625 16 -57.9765625 16 -55.52734375 14.3828125 C-54.32658203 13.57457031 -54.32658203 13.57457031 -53.1015625 12.75 C-50.83984375 11.5078125 -50.83984375 11.5078125 -47.83984375 11.5078125 C-47.83984375 10.8478125 -47.83984375 10.1878125 -47.83984375 9.5078125 C-46.51984375 9.5078125 -45.19984375 9.5078125 -43.83984375 9.5078125 C-43.83984375 8.8478125 -43.83984375 8.1878125 -43.83984375 7.5078125 C-29.74020657 2.13813032 -15.3005954 -2.65182259 0 0 Z " fill="#00273E" transform="translate(824.83984375,637.4921875)"/>
<path d="M0 0 C-1.31893273 4.19759919 -2.90240838 8.09645985 -4.8203125 12.0546875 C-5.35527344 13.16328125 -5.89023437 14.271875 -6.44140625 15.4140625 C-6.99699219 16.55617188 -7.55257812 17.69828125 -8.125 18.875 C-8.68832031 20.0403125 -9.25164062 21.205625 -9.83203125 22.40625 C-11.21812761 25.27241534 -12.60754522 28.13691978 -14 31 C-18.28603818 30.24329506 -21.36037755 28.853317 -25.1875 26.75 C-38.2138721 19.96054995 -52.45706798 17.17915665 -67 16 C-67.8146875 15.9278125 -68.629375 15.855625 -69.46875 15.78125 C-79.85523276 15.31618361 -92.72108274 17.59589818 -100.73828125 24.49609375 C-104.84768852 28.74280818 -106.66475349 33.10175676 -107 39 C-106.19732668 44.9197157 -103.56977732 48.3335756 -99 52 C-96.50052474 53.35576709 -93.94473824 54.24525361 -91.23828125 55.1015625 C-90.49959305 55.34838776 -89.76090485 55.59521301 -88.99983215 55.84951782 C-81.59365628 58.25984498 -74.05538095 60.08381769 -66.47293091 61.84109497 C-42.72248825 67.38949319 -14.71550142 74.25084252 -0.8984375 96.36328125 C2.91555187 103.28203527 5.35206659 110.1168102 6 118 C6.10441406 119.19302734 6.10441406 119.19302734 6.2109375 120.41015625 C6.81843483 134.77980464 2.00008323 148.60297144 -7.4375 159.375 C-8.93995993 160.93457824 -10.45916563 162.47832343 -12 164 C-12.52980469 164.55171875 -13.05960938 165.1034375 -13.60546875 165.671875 C-30.05992545 181.40724233 -55.20902376 184.70666299 -76.9609375 184.25390625 C-101.95362186 183.27755286 -129.87739415 176.59329079 -150 161 C-151.64069871 156.07790386 -148.50210854 152.26449259 -146.30664062 147.83203125 C-145.97897705 147.18314941 -145.65131348 146.53426758 -145.3137207 145.86572266 C-144.31685833 143.88366564 -143.34622692 141.89019631 -142.37695312 139.89453125 C-141.74895037 138.6346406 -141.11944232 137.37549892 -140.48828125 136.1171875 C-139.91634033 134.96847168 -139.34439941 133.81975586 -138.75512695 132.63623047 C-137 130 -137 130 -135.00585938 129.01171875 C-131.31950485 128.99018211 -128.29377508 131.3198518 -125.1875 133.125 C-117.31881413 137.48805298 -109.69360891 140.5654061 -101 143 C-99.92363281 143.30679688 -98.84726562 143.61359375 -97.73828125 143.9296875 C-79.98884061 148.51441386 -61.0278895 148.86925083 -44.5625 140.1875 C-40.31642943 136.56280561 -38.47029763 132.88119054 -37.125 127.5 C-36.95762429 122.81348004 -37.23057864 119.043144 -40.4140625 115.3671875 C-47.32316682 109.08905161 -55.32483507 106.3735096 -64.25 104.1875 C-65.72436523 103.81238281 -65.72436523 103.81238281 -67.22851562 103.4296875 C-72.87632415 101.99923818 -78.53767362 100.62817636 -84.203125 99.26953125 C-130.00175136 88.21616773 -130.00175136 88.21616773 -141.890625 68.93359375 C-149.43490836 54.30281121 -150.98017379 38.71087759 -146.03125 22.90625 C-140.32046483 7.93473212 -129.44192865 -4.03322868 -115 -11 C-105.98648037 -14.77182536 -96.74025717 -17.90698819 -87 -19 C-85.96875 -19.13277344 -84.9375 -19.26554687 -83.875 -19.40234375 C-54.82452177 -22.28793813 -24.47948511 -16.0646621 0 0 Z " fill="#00C0D0" transform="translate(584,306)"/>
<path d="M0 0 C10.89 0 21.78 0 33 0 C38.25636226 5.91340754 43.21149118 11.7491322 48 18 C54.38726527 26.20779016 60.86974767 34.33000562 67.44384766 42.38891602 C70.71289834 46.40075519 73.92198291 50.44935898 77.078125 54.55078125 C80.30601859 58.66437735 83.62911128 62.70085421 86.93457031 66.75219727 C91.23776308 72.03672184 95.47002412 77.37307072 99.66113281 82.74682617 C101.72473802 85.46470731 101.72473802 85.46470731 104 88 C104.33 59.62 104.66 31.24 105 2 C105.66 2 106.32 2 107 2 C107 1.34 107 0.68 107 0 C119.54 0 132.08 0 145 0 C145 49.83 145 99.66 145 151 C136.54492271 155.22753864 120.03305142 153.05674901 111 151 C104.9926676 147.72789287 101.81684161 142.17168404 98.47314453 136.39599609 C95.99582181 132.36675427 92.88702737 128.89279556 89.8125 125.3125 C85.09945056 119.6295563 80.51060391 113.85909313 75.97631836 108.03320312 C72.86217226 104.05022002 69.65288562 100.16161882 66.375 96.3125 C65.92382812 95.78261475 65.47265625 95.25272949 65.0078125 94.70678711 C64.11480771 93.65863891 63.22174205 92.61054256 62.32861328 91.5625 C60.14198114 88.99093703 57.97151704 86.40737495 55.8125 83.8125 C55.07644531 82.93207031 54.34039063 82.05164063 53.58203125 81.14453125 C52 79 52 79 52 77 C51.34 77 50.68 77 50 77 C48.6662784 75.31886306 47.40728884 73.57804522 46.1875 71.8125 C43.31752489 67.6657468 40.64649358 64.64649358 37 61 C37 90.7 37 120.4 37 151 C25.12 151 13.24 151 1 151 C0.505 76.255 0.505 76.255 0 0 Z " fill="#002840" transform="translate(470,639)"/>
<path d="M0 0 C0.56952393 0.45503906 1.13904785 0.91007813 1.72583008 1.37890625 C0.44955664 5.35124327 -0.98264636 9.175173 -2.65698242 12.99609375 C-3.10170898 14.01445313 -3.54643555 15.0328125 -4.00463867 16.08203125 C-4.46483398 17.12875 -4.9250293 18.17546875 -5.39916992 19.25390625 C-6.10106445 20.85878906 -6.10106445 20.85878906 -6.81713867 22.49609375 C-7.96716434 25.12472385 -9.11957441 27.75228098 -10.27416992 30.37890625 C-11.0234375 30.07855469 -11.77270508 29.77820313 -12.54467773 29.46875 C-16.02754388 28.07809575 -19.5215916 26.71890781 -23.02416992 25.37890625 C-23.68932617 25.11851562 -24.35448242 24.858125 -25.03979492 24.58984375 C-33.48265155 21.37506373 -41.36922489 20.03204573 -50.39916992 20.06640625 C-51.25381836 20.05029297 -52.1084668 20.03417969 -52.98901367 20.01757812 C-58.52174535 20.01332872 -62.38852389 20.73513121 -67.27416992 23.37890625 C-69.81883507 26.05080465 -71.14880632 27.90524431 -71.46557617 31.62890625 C-71.24484069 35.69579028 -71.09644176 37.59551592 -68.04370117 40.50390625 C-59.98527395 45.95954104 -50.21287552 47.97927616 -40.89916992 50.31640625 C-25.08353984 54.32075115 -8.20899517 58.98578804 1.51489258 73.234375 C7.64196982 84.08523114 9.6027567 95.96863606 6.47583008 108.12890625 C2.02966327 121.46740668 -6.68680901 130.41017566 -19.05541992 136.8203125 C-41.43556289 146.897393 -67.78541602 145.69627266 -90.47265625 137.20483398 C-97.9217886 134.25293475 -105.61591568 131.17911319 -111.27416992 125.37890625 C-103.8911912 107.03848072 -103.8911912 107.03848072 -99.27416992 98.37890625 C-95.65642337 99.74778333 -92.35357016 101.40203427 -88.96166992 103.25390625 C-74.50227425 110.58215015 -53.83429589 114.87383091 -37.96166992 110.19140625 C-34.31125037 108.68040086 -32.23211286 106.88688734 -30.27416992 103.37890625 C-28.90153374 99.16948861 -29.10879113 96.0518144 -31.0925293 92.03100586 C-35.93348721 85.26266656 -45.28233368 83.72746462 -52.83666992 81.87890625 C-55.16296293 81.27902819 -57.48849156 80.67617779 -59.81323242 80.0703125 C-61.48434082 79.6374292 -61.48434082 79.6374292 -63.18920898 79.19580078 C-78.77652672 75.06829484 -94.62230526 69.43139678 -104.14916992 55.56640625 C-109.72329031 45.69114798 -110.74552331 34.66280187 -108.08666992 23.75390625 C-103.71988189 9.38245832 -94.35467617 0.17456447 -81.33666992 -6.93359375 C-76.24820687 -9.30961162 -70.73848442 -10.43778702 -65.27416992 -11.62109375 C-64.52006836 -11.80800781 -63.7659668 -11.99492188 -62.98901367 -12.1875 C-43.28510032 -15.33445595 -16.53351821 -11.78556746 0 0 Z " fill="#002840" transform="translate(242.274169921875,649.62109375)"/>
<path d="M0 0 C1.45079956 0.01244751 1.45079956 0.01244751 2.9309082 0.02514648 C16.9039245 0.3537995 28.82170691 4.85353195 38.85205078 14.79223633 C43.41621691 20.09871691 43.29712104 25.16856882 43.25 31.93359375 C43.26716064 33.71577049 43.26716064 33.71577049 43.28466797 35.53395081 C43.29814914 38.03765622 43.29373158 40.54151466 43.27246094 43.04516602 C43.2500779 46.86171685 43.31294595 50.67048283 43.3828125 54.48632812 C43.38537614 56.92708338 43.38293795 59.36785006 43.375 61.80859375 C43.39949219 62.94010361 43.42398438 64.07161346 43.44921875 65.2374115 C43.31953599 71.59690248 42.4291623 74.96534346 37.90844727 79.58056641 C34.21523199 82.85624894 30.6489625 85.28000785 26.1875 87.375 C25.06214844 87.92027344 23.93679688 88.46554687 22.77734375 89.02734375 C10.25072034 94.03521867 -5.52530198 94.79399765 -18.1484375 89.69140625 C-30.31242131 83.82858523 -38.79116131 76.26661677 -43.75 63.4375 C-48.06716494 50.29451801 -48.01171003 37.99623429 -42.125 25.375 C-35.75499166 13.40245421 -26.22719171 5.14424763 -13.22827148 1.02636719 C-8.83157077 -0.01834192 -4.50092788 -0.04990988 0 0 Z " fill="#F8FAFA" transform="translate(821.75,668.5625)"/>
<path d="M0 0 C9.12543919 7.36689101 14.25127124 16.72823456 17 28 C17.18433594 28.65355469 17.36867188 29.30710937 17.55859375 29.98046875 C20.09752486 41.59664031 16.70512243 54.39736638 10.796875 64.4296875 C4.49514636 73.44389934 -4.11979816 80.58967392 -14.83203125 83.49609375 C-30.24105192 85.94709704 -44.17337757 84.20399672 -57 75 C-65.9549124 68.05306072 -72.16996947 56.78140621 -73.78125 45.5390625 C-73.8534375 44.70117188 -73.925625 43.86328125 -74 43 C-74.0928125 42.01773438 -74.185625 41.03546875 -74.28125 40.0234375 C-74.88511323 27.61404813 -71.00789372 16.16438476 -63.29296875 6.4375 C-46.37652875 -11.54522327 -20.27848475 -13.9731434 0 0 Z " fill="#F8FAFA" transform="translate(385,677)"/>
<path d="M0 0 C12.87 0 25.74 0 39 0 C39 49.83 39 99.66 39 151 C26.13 151 13.26 151 0 151 C-0.06058594 147.71417969 -0.12117187 144.42835938 -0.18359375 141.04296875 C-0.24537597 137.86578044 -0.30876666 134.68862803 -0.37231445 131.51147461 C-0.41566552 129.30089502 -0.45734046 127.09028191 -0.49731445 124.87963867 C-0.55501266 121.70481251 -0.61870862 118.53015514 -0.68359375 115.35546875 C-0.70030624 114.36475876 -0.71701874 113.37404877 -0.73423767 112.35331726 C-0.75418289 111.43258926 -0.77412811 110.51186127 -0.79467773 109.56323242 C-0.81022202 108.7527092 -0.8257663 107.94218597 -0.84178162 107.10710144 C-0.92809721 104.80853317 -0.92809721 104.80853317 -2 102 C-1.505 101.505 -1.505 101.505 -1 101 C-0.92851801 99.64756083 -0.91600546 98.29165633 -0.9375 96.9375 C-0.958125 95.638125 -0.97875 94.33875 -1 93 C-1.33 93 -1.66 93 -2 93 C-2 89.7 -2 86.4 -2 83 C-1.67 83 -1.34 83 -1 83 C-0.67 76.07 -0.34 69.14 0 62 C-0.66 61.67 -1.32 61.34 -2 61 C-1.34 61 -0.68 61 0 61 C-0.03552979 59.89825439 -0.07105957 58.79650879 -0.10766602 57.66137695 C-1.33207404 18.94505306 -1.33207404 18.94505306 0 0 Z " fill="#00263D" transform="translate(658,639)"/>
<path d="M0 0 C1.36667475 -0.00445668 1.36667475 -0.00445668 2.76095909 -0.0090034 C5.79124604 -0.01762319 8.82149318 -0.01919292 11.85179138 -0.02069092 C14.03402794 -0.02532388 16.2162637 -0.03034918 18.39849854 -0.03573608 C24.31207413 -0.04881655 30.2256384 -0.05529659 36.1392262 -0.05974674 C39.83985815 -0.06268468 43.54048706 -0.06679085 47.24111748 -0.07125092 C58.83714106 -0.08491475 70.43315762 -0.0945867 82.02918869 -0.09845281 C84.00693855 -0.09911595 84.00693855 -0.09911595 86.02464294 -0.09979248 C87.01555979 -0.10012463 87.01555979 -0.10012463 88.02649515 -0.10046348 C99.38048919 -0.10465143 110.73440024 -0.12480702 122.08836704 -0.1494534 C132.43181488 -0.17112124 142.77523398 -0.18115982 153.11870426 -0.18249393 C159.28617265 -0.18353835 165.4535445 -0.18936869 171.62098885 -0.20731354 C177.42819795 -0.22388247 183.23523887 -0.22590713 189.0424633 -0.21717453 C191.16271798 -0.21640885 193.28298203 -0.22068431 195.4032135 -0.23063278 C220.79615151 -0.34270434 242.97832441 3.75636239 262.17381287 21.76544189 C274.28628921 34.01899534 282.56809923 49.61437774 282.6796875 67.09033203 C282.69437073 68.8449173 282.69437073 68.8449173 282.70935059 70.63494873 C282.71510605 71.90616577 282.72086151 73.17738281 282.72679138 74.48712158 C282.73638505 75.852013 282.74639598 77.21690155 282.75679016 78.58178711 C282.78383679 82.29593262 282.80488722 86.01009059 282.82479215 89.72428036 C282.84689585 93.67432186 282.8742168 97.62432773 282.90084839 101.57434082 C282.94518702 108.26269848 282.98587615 114.95107038 283.02415466 121.63946533 C283.0627495 128.38037297 283.10417551 135.12125346 283.14915466 141.86212158 C283.15459687 142.67820467 283.16003907 143.49428777 283.1656462 144.33510065 C283.17107857 145.1495935 283.17651094 145.96408635 283.18210793 146.8032608 C283.38661175 177.4812753 283.56235417 208.15981765 283.60531425 238.83853912 C283.60927462 241.35892285 283.61482353 243.87930464 283.62205696 246.39968109 C283.63122399 249.82663086 283.63388647 253.25352044 283.63450623 256.68048096 C283.63827459 257.67784019 283.64204296 258.67519943 283.64592552 259.70278168 C283.64395133 261.07477596 283.64395133 261.07477596 283.64193726 262.4744873 C283.64283828 263.26074619 283.6437393 264.04700508 283.64466763 264.85709 C283.50962671 267.35992818 283.06641208 269.6967638 282.52146912 272.14044189 C281.86146912 272.14044189 281.20146912 272.14044189 280.52146912 272.14044189 C280.5165039 270.52449521 280.5165039 270.52449521 280.51143837 268.87590313 C280.43038526 242.6430305 280.33805169 216.41021596 280.23394203 190.17742443 C280.18385526 177.49136239 280.13741186 164.80530669 280.09959412 152.11920166 C280.0666166 141.05988917 280.02675356 130.00062642 279.97867906 118.94136888 C279.95347137 113.08751894 279.93167318 107.23370174 279.91812515 101.37981224 C279.90525279 95.86492685 279.8831428 90.35015409 279.85408592 84.83533096 C279.84505052 82.81620441 279.83932939 80.79705975 279.83725548 78.77791405 C279.94027805 59.86361825 279.94027805 59.86361825 273.95896912 42.14044189 C273.60818298 41.46110596 273.25739685 40.78177002 272.89598083 40.08184814 C265.84500174 26.89592525 255.88280422 17.66459666 242.70896912 10.82794189 C242.09400574 10.50221191 241.47904236 10.17648193 240.84544373 9.84088135 C227.49934923 3.26784006 213.4560085 3.68618844 198.95506287 3.67633057 C196.68854584 3.66402184 194.42203538 3.6504476 192.15553284 3.63571167 C186.03166158 3.59973075 179.90786555 3.58211565 173.78390884 3.56846786 C167.35711398 3.55156938 160.93039205 3.51951133 154.50364685 3.48963928 C143.71370448 3.44183942 132.92378148 3.40573986 122.1337738 3.37701416 C111.05883134 3.34752581 99.98401439 3.30608129 88.90916443 3.25201416 C75.52443345 3.18668861 62.13971359 3.1317431 48.75489807 3.08605385 C43.65793127 3.06850542 38.56100311 3.04706899 33.46406555 3.02248192 C27.4557753 2.99409136 21.44753757 2.97603063 15.43918991 2.96574783 C13.24187462 2.9603929 11.04456442 2.95160872 8.84727859 2.9390316 C-17.24190263 2.79487096 -38.27599366 6.51949185 -57.74415588 25.30450439 C-70.39957675 38.42998375 -75.65465133 54.14776969 -75.60551453 72.15740967 C-75.60707452 73.04302157 -75.60863451 73.92863347 -75.61024177 74.8410821 C-75.61421774 77.79700561 -75.61107523 80.75287741 -75.60792542 83.70880127 C-75.60928104 85.83325226 -75.61106188 87.95770301 -75.61323547 90.08215332 C-75.6177928 95.84703078 -75.61602663 101.61189034 -75.61285639 107.37676811 C-75.61032139 113.420918 -75.61267375 119.46506636 -75.61424255 125.50921631 C-75.61606203 135.66754429 -75.61366491 145.82586501 -75.60890198 155.98419189 C-75.6034715 167.70094942 -75.60521406 179.41768952 -75.61072838 191.13444662 C-75.61527984 201.21117345 -75.61589978 211.28789506 -75.61328971 221.36462259 C-75.6117366 227.37499686 -75.61150636 233.38536296 -75.6148262 239.39573669 C-75.61773407 245.05595455 -75.61567607 250.71615018 -75.60993195 256.37636566 C-75.60861939 258.44381931 -75.6089726 260.51127485 -75.61119461 262.57872772 C-75.62214683 273.81296808 -75.42975517 284.9418412 -74.47853088 296.14044189 C-80.71195133 289.90702145 -78.74417913 274.3185323 -78.76069641 265.98196411 C-78.75840336 264.01281713 -78.75589377 262.04367039 -78.75318909 260.07452393 C-78.75754357 257.96889059 -78.76272915 255.86325883 -78.76867676 253.75762939 C-78.78199827 248.07160494 -78.78265313 242.38564724 -78.78011346 236.69961023 C-78.77903916 231.93847751 -78.78393877 227.17735804 -78.78871888 222.41622818 C-78.79979022 211.17699103 -78.80026474 199.93778731 -78.79420471 188.69854736 C-78.78816536 177.13499316 -78.80048051 165.57156065 -78.82177478 154.0080272 C-78.83943264 144.05006805 -78.84538558 134.09214749 -78.84213704 124.13417327 C-78.84033084 118.1998697 -78.84289397 112.26565296 -78.85685158 106.33136368 C-78.8694937 100.74816363 -78.86742575 95.16515235 -78.85444069 89.58195496 C-78.85208928 87.54352121 -78.85475752 85.50507391 -78.86306381 83.46665573 C-78.91719107 69.14062837 -78.79023216 54.67130975 -71.72853088 41.76544189 C-71.37782532 41.09827148 -71.02711975 40.43110107 -70.66578674 39.74371338 C-67.79187423 34.41552758 -64.55699283 29.62937003 -60.47853088 25.14044189 C-59.8249762 24.39536377 -59.17142151 23.65028564 -58.49806213 22.88262939 C-43.0786448 6.31167087 -21.98077836 -0.02282475 0 0 Z " fill="#05A8B6" transform="translate(409.47853088378906,214.85955810546875)"/>
<path d="M0 0 C0.33 0 0.66 0 1 0 C2.22909514 18.76418587 -3.00332691 35.07183505 -15.5 49.375 C-30.16922188 64.86055294 -48.6518308 73.39217742 -70.06376648 74.27625656 C-75.90365227 74.42473664 -81.74268752 74.40623842 -87.58398438 74.38818359 C-89.81651566 74.39225726 -92.04904493 74.39760357 -94.28157043 74.40411377 C-100.30015139 74.41769856 -106.31857671 74.41252544 -112.33716011 74.40297651 C-118.66239946 74.39533385 -124.98762628 74.40243824 -131.31286621 74.40713501 C-142.609492 74.41292704 -153.90603943 74.40365629 -165.20264953 74.388357 C-175.41264094 74.37495665 -185.62252997 74.37728563 -195.83251953 74.39111328 C-207.7339497 74.40722451 -219.63531787 74.41311384 -231.53676271 74.40427649 C-237.82036576 74.3996209 -244.10389853 74.39891656 -250.38749695 74.40888596 C-256.29741556 74.41760903 -262.20714253 74.41143686 -268.11704063 74.39420319 C-270.27438223 74.39026672 -272.43174021 74.39132309 -274.58907509 74.39799118 C-298.47374448 74.46495925 -320.89526997 71.30007536 -339 54 C-345.9088168 46.29181597 -352.8998378 37.00210226 -356 27 C-355.54638672 24.8503418 -355.54638672 24.8503418 -355 23 C-354.46890625 24.08539062 -353.9378125 25.17078125 -353.390625 26.2890625 C-352.6773009 27.73448239 -351.96374699 29.17978889 -351.25 30.625 C-350.72792969 31.69427734 -350.72792969 31.69427734 -350.1953125 32.78515625 C-341.2915813 50.75750255 -327.62164527 62.09420743 -308.81622219 68.77591228 C-298.15945969 71.96630778 -287.28158241 71.4132088 -276.27172852 71.37231445 C-273.97580806 71.37474547 -271.67988866 71.3784678 -269.38397217 71.38337708 C-263.17527319 71.39274765 -256.96673293 71.38339253 -250.75804639 71.37004495 C-244.24453552 71.35868794 -237.73103197 71.36284127 -231.21751404 71.36479187 C-220.2803179 71.36567356 -209.34318524 71.3546926 -198.40600586 71.33618164 C-187.17877323 71.31718505 -175.95161279 71.31009387 -164.72436523 71.31567383 C-151.15919642 71.3223959 -137.59407998 71.31906147 -124.0289135 71.30657005 C-118.86218612 71.3019404 -113.69547834 71.30104313 -108.52874947 71.3031559 C-102.43753489 71.30504771 -96.34641215 71.29686645 -90.25521851 71.2810955 C-88.02728086 71.27687426 -85.79933386 71.27598745 -83.57139397 71.27878571 C-62.70133289 71.58817616 -62.70133289 71.58817616 -42.875 65.8125 C-42.2061377 65.50570312 -41.53727539 65.19890625 -40.84814453 64.8828125 C-31.69241993 60.57837014 -24.33351247 55.95749003 -18 48 C-17.34 48 -16.68 48 -16 48 C-15.62681641 47.21689453 -15.62681641 47.21689453 -15.24609375 46.41796875 C-13.33505571 42.70971625 -11.16873555 39.14117509 -9.00976562 35.57226562 C-4.25365211 27.44835798 -2.49263475 19.20445978 -1.3125 9.9375 C-1.18294922 8.97650391 -1.05339844 8.01550781 -0.91992188 7.02539062 C-0.60547553 4.68451226 -0.29899053 2.34289368 0 0 Z " fill="#0AA8B5" transform="translate(691,489)"/>
<path d="M0 0 C10.89 0 21.78 0 33 0 C37.55245163 5.12150808 41.87412416 10.00015421 46.00390625 15.3984375 C49.02598305 19.33719121 52.10751814 23.22892166 55.1809082 27.12768555 C56.45714582 28.74927147 57.72875032 30.37450081 59 32 C59.62390625 32.73605469 60.2478125 33.47210937 60.890625 34.23046875 C61.25671875 34.81441406 61.6228125 35.39835938 62 36 C61.67 36.99 61.34 37.98 61 39 C54.15648878 30.62241075 47.33703304 22.23134896 40.69213867 13.69482422 C37.86080475 10.06406132 34.95125397 6.54150477 32 3 C17.15 2.505 17.15 2.505 2 2 C2 50.51 2 99.02 2 149 C12.56 149 23.12 149 34 149 C34 118.31 34 87.62 34 56 C34.99 56.495 34.99 56.495 36 57 C36.41062927 59.94287109 36.41062927 59.94287109 36.61889648 63.8984375 C36.656566 64.6129306 36.69423552 65.32742371 36.73304653 66.06356812 C37.14080898 74.58138942 37.12532133 83.09968645 37.09765625 91.625 C37.09578505 93.35091104 37.09436448 95.07682261 37.09336853 96.80273438 C37.08959852 101.28732844 37.07981723 105.77188875 37.06866455 110.25646973 C37.05650449 115.66829735 37.05202186 121.08013643 37.04621124 126.49197388 C37.036601 134.66133921 37.01740633 142.83063085 37 151 C25.12 151 13.24 151 1 151 C0.505 76.255 0.505 76.255 0 0 Z " fill="#00111F" transform="translate(470,639)"/>
<path d="M0 0 C-1.43110927 0.63949785 -2.87047458 1.26051327 -4.3125 1.875 C-5.51326172 2.39707031 -5.51326172 2.39707031 -6.73828125 2.9296875 C-18.48433854 6.78408235 -30.45488149 6.28417092 -42.66845703 6.25878906 C-44.86234656 6.26150222 -47.05623517 6.26506497 -49.25012207 6.26940918 C-55.18379292 6.27849573 -61.11739391 6.27500463 -67.05106592 6.26865101 C-73.27150308 6.26357294 -79.49193442 6.26828736 -85.71237183 6.27142334 C-96.82244756 6.27528964 -107.9324925 6.26909185 -119.0425633 6.25890467 C-129.10244719 6.24996588 -139.16228491 6.25152641 -149.22216797 6.26074219 C-160.9271846 6.27146016 -172.63217432 6.27542162 -184.33719528 6.26951766 C-190.52506167 6.26640409 -196.71289631 6.26597192 -202.90076065 6.27259064 C-208.71698413 6.27837787 -214.53312061 6.27434191 -220.34933472 6.26280212 C-222.48058808 6.26016317 -224.6118488 6.26090754 -226.74309921 6.26532745 C-229.65810535 6.27081436 -232.57283484 6.26391072 -235.48782349 6.25396729 C-236.32567701 6.25842873 -237.16353054 6.26289017 -238.02677357 6.26748681 C-243.57656768 6.23091324 -248.63397393 5.40713015 -254 4 C-254 3.67 -254 3.34 -254 3 C-252.82846847 3.00184359 -251.65693693 3.00368717 -250.44990444 3.00558662 C-222.58796359 3.0489804 -194.72602538 3.08192001 -166.86405778 3.10213066 C-163.42849614 3.10463182 -159.99293458 3.10722049 -156.55737305 3.10986328 C-155.53151294 3.11065021 -155.53151294 3.11065021 -154.48492838 3.11145304 C-143.43729048 3.12013589 -132.38967358 3.13589408 -121.3420481 3.15430559 C-109.99100144 3.17306383 -98.63997026 3.18397968 -87.28890711 3.18817699 C-80.9195882 3.19077737 -74.55031676 3.19686124 -68.18101311 3.21146011 C-62.17697359 3.22510932 -56.17300078 3.22920788 -50.16894722 3.22621536 C-47.97410341 3.22676226 -45.7792572 3.2306957 -43.58442688 3.23841095 C-32.65247522 3.27493004 -8.88361757 -3.29022873 0 0 Z " fill="#03ACBA" transform="translate(645,540)"/>
<path d="M0 0 C0.33 0 0.66 0 1 0 C0.67 74.91 0.34 149.82 0 227 C-2.24457467 222.51085067 -2.28005966 219.14919844 -2.25396729 214.27650452 C-2.25708727 213.38640023 -2.26020725 212.49629595 -2.26342177 211.5792188 C-2.27141193 208.59058738 -2.2650741 205.60215841 -2.25878906 202.61352539 C-2.26149849 200.47329082 -2.26505915 198.33305718 -2.26940918 196.19282532 C-2.27854172 190.37470702 -2.27498519 184.5566595 -2.26865101 178.73853993 C-2.26359485 172.65499125 -2.26828145 166.5714487 -2.27142334 160.48789978 C-2.27506438 150.26967275 -2.27026055 140.0514746 -2.26074219 129.83325195 C-2.2498603 118.01466177 -2.25338075 106.1961406 -2.264395 94.37755209 C-2.2734674 84.23734383 -2.27475329 74.09715637 -2.26951766 63.95694536 C-2.26639734 57.8976522 -2.2659903 51.8383915 -2.27259064 45.77910042 C-2.27836266 40.0819939 -2.27436975 34.38497645 -2.26280212 28.68787956 C-2.26015466 26.59526594 -2.2609221 24.50264484 -2.26532745 22.41003418 C-2.27078092 19.55674752 -2.26395102 16.70374746 -2.25396729 13.85047913 C-2.25842873 13.01954508 -2.26289017 12.18861104 -2.26748681 11.33249718 C-2.23869877 7.09960158 -1.95314268 3.86379604 0 0 Z " fill="#05AFBF" transform="translate(350,274)"/>
<path d="M0 0 C0.33 0 0.66 0 1 0 C1 49.83 1 99.66 1 151 C-32 150 -32 150 -40.1875 142.5 C-41.67633146 140.15509044 -43.16550595 137.80801106 -44.54296875 135.39599609 C-47.00007701 131.35543636 -50.1119076 127.88972646 -53.1875 124.3125 C-57.89958379 118.63150372 -62.48834833 112.86344635 -67.01928711 107.03759766 C-70.17011204 103.00542717 -73.42832591 99.07975794 -76.75 95.1875 C-83.55066512 87.19025454 -83.55066512 87.19025454 -86.25 83.875 C-86.81203125 83.19179688 -87.3740625 82.50859375 -87.953125 81.8046875 C-88.29859375 81.20914063 -88.6440625 80.61359375 -89 80 C-88.67 79.01 -88.34 78.02 -88 77 C-79.27247757 87.26095628 -70.6823948 97.61823337 -62.28515625 108.15234375 C-59.99161856 111.01044456 -57.67974233 113.85280141 -55.36425781 116.69311523 C-50.07473661 123.18178969 -44.83261626 129.70153471 -39.69018555 136.30761719 C-36.85955869 139.93761615 -33.9505925 143.459289 -31 147 C-20.77 147.33 -10.54 147.66 0 148 C0 99.16 0 50.32 0 0 Z " fill="#010B16" transform="translate(613,640)"/>
<path d="M0 0 C3.72856426 -0.02385481 7.11409755 0.11278461 10.74251461 1.01988888 C8.04883821 3.71356528 5.99254031 3.24966014 2.33367002 3.25187838 C0.97084927 3.23730343 0.97084927 3.23730343 -0.41950321 3.22243404 C-1.38084687 3.22005934 -2.34219052 3.21768464 -3.3326658 3.21523798 C-6.57416013 3.20476916 -9.81538723 3.17988428 -13.0568018 3.15514278 C-15.37233457 3.14472328 -17.68787147 3.13518683 -20.00341129 3.12647152 C-26.30688044 3.10022654 -32.61022059 3.06156203 -38.91360998 3.02074766 C-45.4946213 2.98022133 -52.07568234 2.95100583 -58.65674686 2.9206152 C-69.70827244 2.86838071 -80.75973849 2.80845728 -91.81119633 2.74352169 C-103.19561501 2.67664886 -114.58004399 2.61398362 -125.96451664 2.55699825 C-127.01664441 2.55172959 -127.01664441 2.55172959 -128.09002729 2.54635449 C-131.60874242 2.5287601 -135.12745796 2.51124866 -138.64617372 2.49377847 C-167.85001725 2.34867592 -197.05377047 2.18887133 -226.25748539 2.01988888 C-226.25748539 1.68988888 -226.25748539 1.35988888 -226.25748539 1.01988888 C-197.18967885 0.88928763 -168.12187139 0.75889081 -139.05406284 0.62873745 C-136.36731306 0.61670661 -133.68056329 0.604675 -130.99381351 0.59264278 C-129.99211468 0.58815686 -129.99211468 0.58815686 -128.9701795 0.58358032 C-118.16355134 0.53518112 -107.35692375 0.4866557 -96.55029637 0.43808347 C-85.45805661 0.38823032 -74.36581623 0.33851588 -63.27357531 0.28892183 C-57.04478731 0.26106818 -50.8159996 0.23315164 -44.58721256 0.2050848 C-38.72356579 0.17866526 -32.85991828 0.15241365 -26.99627018 0.12629032 C-24.84525366 0.11667775 -22.69423742 0.10700404 -20.54322147 0.09726429 C-17.60329095 0.08396154 -14.66335953 0.07088009 -11.72342777 0.05785275 C-10.87515809 0.0539618 -10.0268884 0.05007085 -9.15291357 0.04606199 C-7.5894881 0.03922204 -6.02605834 0.03327888 -4.4626255 0.02840233 C-2.97506463 0.02265926 -1.48751423 0.01310528 0 0 Z " fill="#00B0C0" transform="translate(626.2574853897095,215.98011112213135)"/>
<path d="M0 0 C0.66 0 1.32 0 2 0 C2 30.36 2 60.72 2 92 C-1.4997537 90.25012315 -2.52340699 89.72256443 -4.7265625 86.8828125 C-5.2009375 86.27566406 -5.6753125 85.66851563 -6.1640625 85.04296875 C-6.64617188 84.41003906 -7.12828125 83.77710938 -7.625 83.125 C-8.11484375 82.49980469 -8.6046875 81.87460937 -9.109375 81.23046875 C-11.39687555 78.27421804 -13.52130658 75.46188224 -15 72 C-11 74 -11 74 -1 86 C-0.67 57.62 -0.34 29.24 0 0 Z " fill="#04202E" transform="translate(575,641)"/>
<path d="M0 0 C0.33 0 0.66 0 1 0 C2.22909514 18.76418587 -3.00332691 35.07183505 -15.5 49.375 C-26.64510082 61.14031722 -40.76185097 70.24777135 -57 73 C-59.43205838 72.8697942 -61.60448811 72.49906498 -64 72 C-64 71.67 -64 71.34 -64 71 C-63.2471875 70.93683594 -62.494375 70.87367188 -61.71875 70.80859375 C-45.1961165 68.90367848 -28.43654613 61.1125836 -18 48 C-17.34 48 -16.68 48 -16 48 C-15.75121094 47.47792969 -15.50242187 46.95585938 -15.24609375 46.41796875 C-13.33505571 42.70971625 -11.16873555 39.14117509 -9.00976562 35.57226562 C-4.25365211 27.44835798 -2.49263475 19.20445978 -1.3125 9.9375 C-1.18294922 8.97650391 -1.05339844 8.01550781 -0.91992188 7.02539062 C-0.60547553 4.68451226 -0.29899053 2.34289368 0 0 Z " fill="#06A8B6" transform="translate(691,489)"/>
<path d="M0 0 C4.55289875 -0.2240449 9.10253451 -0.38647538 13.65966797 -0.49438477 C15.20613531 -0.53939461 16.75222496 -0.60063085 18.29736328 -0.67895508 C31.11063927 -1.31176051 31.11063927 -1.31176051 35.73120117 1.89624023 C37.76158913 4.16837993 39.38576186 6.42095749 41 9 C42.09122872 10.40597105 43.19364415 11.80341319 44.3125 13.1875 C44.87066406 13.91710937 45.42882812 14.64671875 46.00390625 15.3984375 C49.02598305 19.33719121 52.10751814 23.22892166 55.1809082 27.12768555 C56.45714582 28.74927147 57.72875032 30.37450081 59 32 C59.62390625 32.73605469 60.2478125 33.47210937 60.890625 34.23046875 C61.25671875 34.81441406 61.6228125 35.39835938 62 36 C61.67 36.99 61.34 37.98 61 39 C54.15648878 30.62241075 47.33703304 22.23134896 40.69213867 13.69482422 C39.4678476 12.12485377 38.23403653 10.56232189 37 9 C36.38511719 7.89398437 35.77023437 6.78796875 35.13671875 5.6484375 C33.12755132 3.25425168 31.97505369 2.99581989 28.82666016 2.46826172 C24.81041573 2.2544947 20.83238111 2.21172875 16.8125 2.25 C14.72658268 2.24855796 12.64116489 2.23871779 10.55534363 2.21868896 C8.67082409 2.20382533 6.78616023 2.21313184 4.90161133 2.22363281 C2 2 2 2 0 0 Z " fill="#021828" transform="translate(470,639)"/>
<path d="M0 0 C0.99 0.99 0.99 0.99 2 2 C1.22398437 2.08636719 0.44796875 2.17273438 -0.3515625 2.26171875 C-20.47805891 4.87960432 -37.30028823 13.95250975 -50.171875 29.6484375 C-57.26103144 39.49448811 -61.68357048 49.88884845 -63 62 C-63.66 62 -64.32 62 -65 62 C-64.59564461 45.38466949 -55.29249869 31.51986444 -44 20 C-43.33484375 19.29875 -42.6696875 18.5975 -41.984375 17.875 C-32.07344044 8.19103341 -14.03473522 -1.11323679 0 0 Z " fill="#06A8B6" transform="translate(397,216)"/>
<path d="M0 0 C0.66 0 1.32 0 2 0 C0.32067048 5.8100941 -2.39208392 11.00868579 -5.125 16.375 C-5.59292969 17.30183594 -6.06085938 18.22867187 -6.54296875 19.18359375 C-7.69169056 21.45759406 -8.84411881 23.72963282 -10 26 C0.31434453 37.34326941 17.92838309 41.43722366 32 46 C32 46.33 32 46.66 32 47 C25.16755589 46.51343678 19.62137826 45.05889019 13.3125 42.4375 C12.44834473 42.08397461 11.58418945 41.73044922 10.69384766 41.36621094 C-8.44832998 33.34330825 -8.44832998 33.34330825 -12.32519531 28.26367188 C-13.35532775 24.80803224 -11.98493908 23.06535445 -10.3515625 19.921875 C-9.75859375 18.76171875 -9.165625 17.6015625 -8.5546875 16.40625 C-7.91180007 15.1873197 -7.2685664 13.96857196 -6.625 12.75 C-5.98812438 11.51637711 -5.35268954 10.28200926 -4.71875 9.046875 C-3.15987837 6.02360881 -1.58659811 3.0087819 0 0 Z " fill="#04ABB9" transform="translate(446,438)"/>
<path d="M0 0 C2.22746789 2.22746789 3.28178676 4.53258192 4.61303711 7.35742188 C8.24263259 15.04218181 12.12684739 21.76680738 18 28 C18.65226562 28.69351563 19.30453125 29.38703125 19.9765625 30.1015625 C28.96070571 38.8165179 40.78266167 44.56161231 53 47 C52.505 47.99 52.505 47.99 52 49 C35.75580531 46.67940076 20.69592712 36.59599867 10.88671875 23.72265625 C0 8.01242236 0 8.01242236 0 0 Z " fill="#05A6B5" transform="translate(335,512)"/>
<path d="M0 0 C0.66 0 1.32 0 2 0 C3.27114968 1.79035166 4.46625519 3.63492868 5.625 5.5 C15.3193477 20.25752752 29.28472574 29.6443472 46 35 C46 35.33 46 35.66 46 36 C31.77114056 35.75883289 20.11768471 26.13955164 10.45703125 16.44921875 C0 5.20748369 0 5.20748369 0 0 Z " fill="#021625" transform="translate(285,752)"/>
<path d="M0 0 C0.66 0 1.32 0 2 0 C0.87740482 2.82807632 -0.26807893 5.6439722 -1.4375 8.453125 C-1.95846296 9.71869665 -2.47929367 10.98432274 -3 12.25 C-3.26039063 12.86746094 -3.52078125 13.48492188 -3.7890625 14.12109375 C-7.75741355 23.8415496 -8.36840917 33.11176939 -8.625 43.5625 C-8.66367187 44.85736328 -8.70234375 46.15222656 -8.7421875 47.48632812 C-8.83579894 50.65741576 -8.92153403 53.82850755 -9 57 C-9.33 57 -9.66 57 -10 57 C-14.44609902 37.92954224 -11.04469722 18.60473861 -1.13671875 1.80859375 C-0.76160156 1.21175781 -0.38648438 0.61492188 0 0 Z " fill="#021423" transform="translate(749,673)"/>
<path d="M0 0 C0.53625 0.226875 1.0725 0.45375 1.625 0.6875 C0.80257812 1.08839844 -0.01984375 1.48929688 -0.8671875 1.90234375 C-12.76370536 7.96050123 -22.19997026 14.88611065 -27.375 27.6875 C-29.43995598 34.49032451 -29.86487873 41.62634774 -30.375 48.6875 C-31.035 48.3575 -31.695 48.0275 -32.375 47.6875 C-33.06460488 34.48284362 -29.91968315 22.34165578 -21.01953125 12.2265625 C-6.97451982 -0.91769998 -6.97451982 -0.91769998 0 0 Z " fill="#041725" transform="translate(165.375,642.3125)"/>
<path d="M0 0 C5.43134341 0.54947443 9.84387928 1.89492753 14.8125 4.125 C15.51318604 4.43775879 16.21387207 4.75051758 16.93579102 5.07275391 C30.3302007 11.23057101 42.54807336 20.88913106 48 35 C48.15234375 37.828125 48.15234375 37.828125 48 40 C46.21329028 37.31993541 44.78410793 34.67104801 43.3125 31.8125 C33.87409733 14.55045752 17.67889632 7.78422658 0 1 C0 0.67 0 0.34 0 0 Z " fill="#03AAB9" transform="translate(539,375)"/>
<path d="M0 0 C33.89231081 4.79667714 33.89231081 4.79667714 44.3125 16.625 C46.79148559 20.11394268 47.11687033 21.88411387 47.0625 26.125 C47.05347656 27.03507812 47.04445313 27.94515625 47.03515625 28.8828125 C47.02355469 29.58148438 47.01195312 30.28015625 47 31 C46.67 31 46.34 31 46 31 C45.79697266 29.80503906 45.79697266 29.80503906 45.58984375 28.5859375 C44.34018495 22.43492233 43.3066303 18.15247848 38.20703125 14.28125 C31.10977195 10.16107115 24.29991979 7.80669845 16.3125 5.875 C14.28702746 5.37535782 12.26225896 4.872851 10.23828125 4.3671875 C9.35180908 4.15175293 8.46533691 3.93631836 7.55200195 3.71435547 C4.94219172 2.98381833 2.49620852 2.05076942 0 1 C0 0.67 0 0.34 0 0 Z " fill="#03ADBB" transform="translate(502,404)"/>
<path d="M0 0 C0.33 0 0.66 0 1 0 C1 9.9 1 19.8 1 30 C-10.88 30 -22.76 30 -35 30 C-35 29.34 -35 28.68 -35 28 C-33.50835327 27.96241577 -33.50835327 27.96241577 -31.98657227 27.92407227 C-28.30951253 27.83015118 -24.6326485 27.72989381 -20.95581055 27.62768555 C-19.362107 27.58427854 -17.7683552 27.54260781 -16.17456055 27.50268555 C-13.88836092 27.44512193 -11.60240551 27.38138851 -9.31640625 27.31640625 C-8.2413961 27.29133751 -8.2413961 27.29133751 -7.14466858 27.26576233 C-3.78472618 27.44981346 -3.78472618 27.44981346 -1 26 C-0.84193469 24.07521187 -0.748865 22.1450079 -0.68359375 20.21484375 C-0.62075195 18.46010742 -0.62075195 18.46010742 -0.55664062 16.66992188 C-0.51732422 15.43822266 -0.47800781 14.20652344 -0.4375 12.9375 C-0.39431641 11.70193359 -0.35113281 10.46636719 -0.30664062 9.19335938 C-0.20015802 6.12902665 -0.09814576 3.06460927 0 0 Z " fill="#011E2E" transform="translate(506,760)"/>
<path d="M0 0 C1.21079153 3.63237459 0.76395223 4.22567895 -0.875 7.5625 C-4.02624464 13.55861827 -8.24300668 18.22637384 -13 23 C-13.53109375 23.55429687 -14.0621875 24.10859375 -14.609375 24.6796875 C-21.58272867 31.32953507 -34.15251029 38.70228306 -43.875 39.125 C-44.57625 39.08375 -45.2775 39.0425 -46 39 C-43.15685227 37.10456818 -40.42590979 35.95621834 -37.24975586 34.74267578 C-19.20639952 27.78379478 -8.47251312 17.13036246 0 0 Z " fill="#05A9B8" transform="translate(585,447)"/>
<path d="M0 0 C2.00308581 2.00308581 2.86204995 3.55867944 4.125 6.0625 C12.90663689 21.98721762 28.33065986 28.64560589 45 34 C45 34.33 45 34.66 45 35 C39.09362125 34.49242058 34.38252347 33.26165259 29 30.8125 C28.29939453 30.49788818 27.59878906 30.18327637 26.87695312 29.85913086 C21.71817715 27.47505999 17.20896587 24.85742696 13 21 C12.31550781 20.39414062 11.63101562 19.78828125 10.92578125 19.1640625 C6.21940294 14.76216338 2.36806679 10.05678621 0 4 C0 2.68 0 1.36 0 0 Z " fill="#04AAB8" transform="translate(439,365)"/>
<path d="M0 0 C6.03427231 1.98727321 8.66504556 5.77180539 12 11 C15.28916234 17.67709832 17.13508167 24.03563006 17.1875 31.5 C17.20167969 32.4178125 17.21585938 33.335625 17.23046875 34.28125 C16.98342521 37.19552633 16.21293885 39.35358797 15 42 C14.67 42 14.34 42 14 42 C14.02320313 41.28457031 14.04640625 40.56914063 14.0703125 39.83203125 C14.28897523 27.75872453 13.76867382 16.77466941 6 7 C4.08443752 5.16244685 2.11604066 3.61222145 0 2 C0 1.34 0 0.68 0 0 Z " fill="#021B2B" transform="translate(233,714)"/>
<path d="M0 0 C1.66138623 2.49207935 2.57465693 4.38625499 3.625 7.125 C8.55963828 18.21893131 17.64531813 24.39928588 28.546875 29.09765625 C30.34574331 29.78339505 32.17016321 30.40178413 34 31 C34 31.33 34 31.66 34 32 C24.82000513 32.66062932 16.78373169 26.8008325 10 21.0625 C3.38743857 14.74166922 0.23481856 9.22196517 0 0 Z " fill="#031524" transform="translate(135,692)"/>
<path d="M0 0 C0 3.72514401 -0.80790614 5.00747353 -3 8 C-9.59414167 12.98670547 -16.91509357 17.08930922 -25 19 C-25.76054687 19.18304687 -26.52109375 19.36609375 -27.3046875 19.5546875 C-30.6052108 20.09999135 -33.78033703 20.16974701 -37.125 20.1875 C-38.95417969 20.20876953 -38.95417969 20.20876953 -40.8203125 20.23046875 C-44 20 -44 20 -47 18 C-46.44650879 17.98541748 -45.89301758 17.97083496 -45.32275391 17.95581055 C-26.76112793 17.40919867 -14.50095307 15.25099918 -1.1796875 1.28515625 C-0.79039062 0.86105469 -0.40109375 0.43695312 0 0 Z " fill="#0D1721" transform="translate(394,743)"/>
<path d="M0 0 C1.10335693 0.05184448 1.10335693 0.05184448 2.22900391 0.10473633 C7.44067607 0.44067607 7.44067607 0.44067607 9.6875 2.6875 C7.97433594 2.65269531 7.97433594 2.65269531 6.2265625 2.6171875 C-8.03360265 2.4261765 -22.11376931 3.42777307 -36.3125 4.6875 C-35.9825 4.0275 -35.6525 3.3675 -35.3125 2.6875 C-24.12226756 -0.69610783 -11.58794334 -0.59674586 0 0 Z " fill="#03ACB9" transform="translate(521.3125,286.3125)"/>
<path d="M0 0 C0 0.99 0 1.98 0 3 C-13.48927988 6.73036876 -26.03728561 7.51116668 -40 7 C-40 6.34 -40 5.68 -40 5 C-39.3922876 4.9906543 -38.7845752 4.98130859 -38.15844727 4.97167969 C-24.93849974 4.71766544 -12.72390385 3.6719991 0 0 Z " fill="#051E2C" transform="translate(217,786)"/>
<path d="M0 0 C7.04985157 -0.50474289 12.24455437 1.20025707 18.75 3.8125 C19.68199219 4.16892578 20.61398438 4.52535156 21.57421875 4.89257812 C25.8344321 6.55815652 29.41232426 8.11414921 33 11 C31.125 16.75 31.125 16.75 30 19 C29.34 19 28.68 19 28 19 C28.33 16.69 28.66 14.38 29 12 C20.35052913 6.41760229 9.84131235 3.78912769 0 1 C0 0.67 0 0.34 0 0 Z " fill="#021727" transform="translate(211,640)"/>
<path d="M0 0 C0.99 0.495 0.99 0.495 2 1 C2.44884566 2.82990922 2.89352656 4.66091421 3.3203125 6.49609375 C5.5633785 14.75934263 9.24093377 21.91265126 14.3515625 28.74609375 C16.0621828 31.08502246 17.54310604 33.49679129 19 36 C16.20708705 35.65164981 15.17003018 35.18828845 13.25390625 33.06640625 C6.79566145 23.50581753 -0.92684858 12.0490316 0 0 Z " fill="#021321" transform="translate(740,731)"/>
<path d="M0 0 C3.97461776 2.92644423 6.75319453 6.04232519 9.6875 10 C12.31984975 13.52520821 14.96477339 17.00822005 17.8359375 20.34375 C18.29266846 20.87484375 18.74939941 21.4059375 19.2199707 21.953125 C20.49531896 23.42259337 21.78059831 24.88342523 23.06640625 26.34375 C25.02318595 29.0318514 25.66242351 30.73083819 26 34 C22.21053983 30.36048249 18.94649725 26.53908561 15.75 22.375 C11.51683685 16.90384995 7.17313487 11.56569883 2.6796875 6.3046875 C1.07526682 4.10327308 0.40478467 2.66176589 0 0 Z " fill="#011220" transform="translate(533,678)"/>
<path d="M0 0 C0 0.66 0 1.32 0 2 C-7.64414526 3.77255542 -15.05328779 4.21741802 -22.875 4.25 C-24.22984497 4.26353516 -24.22984497 4.26353516 -25.61206055 4.27734375 C-30.47357994 4.25568284 -34.4388236 3.89672682 -39 2 C-39 1.67 -39 1.34 -39 1 C-38.18321777 1.00523682 -37.36643555 1.01047363 -36.52490234 1.01586914 C-32.80827612 1.03671349 -29.09166222 1.04968392 -25.375 1.0625 C-24.08980469 1.07087891 -22.80460938 1.07925781 -21.48046875 1.08789062 C-20.23652344 1.09111328 -18.99257813 1.09433594 -17.7109375 1.09765625 C-15.99849854 1.10551147 -15.99849854 1.10551147 -14.25146484 1.11352539 C-9.42502941 0.94500966 -4.84701388 -0.14255923 0 0 Z " fill="#041A28" transform="translate(843,789)"/>
<path d="M0 0 C2.38801829 2.38801829 3.04361066 4.41382382 4.25 7.5625 C9.38414459 20.03326281 17.41912228 28.99052138 29 36 C28.01 36.495 28.01 36.495 27 37 C13.71530196 28.4092286 4.90709186 19.4222887 0 4 C0 2.68 0 1.36 0 0 Z " fill="#05ABB9" transform="translate(350,502)"/>
<path d="M0 0 C1.79244141 0.21462891 1.79244141 0.21462891 3.62109375 0.43359375 C10.08776861 1.15211318 16.57362021 1.59679092 23.0625 2.0625 C24.93325195 2.19881836 24.93325195 2.19881836 26.84179688 2.33789062 C29.89442438 2.56011255 32.94715589 2.78077727 36 3 C35.67 3.66 35.34 4.32 35 5 C10.51346672 5.67719104 10.51346672 5.67719104 1 2 C0.67 1.34 0.34 0.68 0 0 Z " fill="#021B29" transform="translate(332,788)"/>
<path d="M0 0 C0.66 0.33 1.32 0.66 2 1 C1.34773438 1.83660156 0.69546875 2.67320312 0.0234375 3.53515625 C-7.734419 13.76412171 -11.98562113 23.8081827 -16 36 C-18.68115284 26.97082352 -12.08054749 17.768315 -8 10 C-7.34 10 -6.68 10 -6 10 C-5.855625 9.38125 -5.71125 8.7625 -5.5625 8.125 C-5 6 -5 6 -4 4 C-3.34 4 -2.68 4 -2 4 C-1.34 2.68 -0.68 1.36 0 0 Z " fill="#020F1D" transform="translate(295,663)"/>
<path d="M0 0 C5 5 5 5 6.6640625 6.98046875 C9.85130733 9.73599647 13.1590171 10.76838734 17.125 12.0625 C17.87966553 12.31854004 18.63433105 12.57458008 19.41186523 12.83837891 C24.90180406 14.68580182 30.42172619 16.4375351 36 18 C36 18.33 36 18.66 36 19 C23.8250124 18.35921118 10.08800929 14.39240975 1.5 5.375 C0 3 0 3 0 0 Z " fill="#02ABB7" transform="translate(476,349)"/>
<path d="M0 0 C-1.34557526 4.03672577 -3.89532729 4.99386042 -7.4375 6.9375 C-8.07059082 7.28941406 -8.70368164 7.64132812 -9.35595703 8.00390625 C-17.20319008 12.29396532 -23.88856372 15.67492121 -33 15 C-30.48448077 12.48448077 -28.54839035 12.18589089 -25.125 11.25 C-17.59162285 9.01757858 -10.08916419 6.10834174 -3.78515625 1.31640625 C-2 0 -2 0 0 0 Z " fill="#021523" transform="translate(407,775)"/>
<path d="M0 0 C1.30904297 -0.00580078 1.30904297 -0.00580078 2.64453125 -0.01171875 C7.56230337 -0.0043236 12.30277161 0.10911722 17.125 1.125 C17.62 2.115 17.62 2.115 18.125 3.125 C6.905 3.125 -4.315 3.125 -15.875 3.125 C-15.545 2.465 -15.215 1.805 -14.875 1.125 C-10.10013476 -0.38991709 -4.95659793 -0.02177129 0 0 Z " fill="#031A2B" transform="translate(191.875,636.875)"/>
<path d="M0 0 C0.99 0.495 0.99 0.495 2 1 C2.75131468 13.43161732 3.25646855 25.5899568 2 38 C1.67 38 1.34 38 1 38 C-0.06346444 29.78242924 -0.11790325 21.65139345 -0.0625 13.375 C-0.05798828 12.08464844 -0.05347656 10.79429687 -0.04882812 9.46484375 C-0.03714295 6.30984625 -0.02076044 3.15494863 0 0 Z " fill="#03AABA" transform="translate(690,423)"/>
<path d="M0 0 C1 3 1 3 -0.0625 5.875 C-3.53524245 11.4761975 -7.67572293 14.39544056 -14 16 C-17.29724867 16.22756812 -20.5720173 16.18966683 -23.875 16.125 C-24.75414062 16.11597656 -25.63328125 16.10695313 -26.5390625 16.09765625 C-28.6928271 16.07424577 -30.84645014 16.0383801 -33 16 C-33 15.67 -33 15.34 -33 15 C-31.56720703 14.96132813 -31.56720703 14.96132813 -30.10546875 14.921875 C-16.84918138 14.45803939 -16.84918138 14.45803939 -5.28515625 8.54296875 C-3.04932424 5.98310312 -1.32276569 3.12653707 0 0 Z " fill="#011223" transform="translate(215,748)"/>
<path d="M0 0 C1.32 0.33 2.64 0.66 4 1 C3.04738281 1.60328125 2.09476563 2.2065625 1.11328125 2.828125 C-0.153742 3.63526573 -1.4206637 4.44256588 -2.6875 5.25 C-3.62625977 5.84361328 -3.62625977 5.84361328 -4.58398438 6.44921875 C-10.53902516 10.25296208 -15.28099083 14.08397645 -19.6875 19.6875 C-23.79234973 24.89617486 -23.79234973 24.89617486 -26 26 C-24.87548273 23.0280615 -23.77706209 20.66559313 -22 18 C-21.34 18 -20.68 18 -20 18 C-19.7525 17.4225 -19.505 16.845 -19.25 16.25 C-17.81700012 13.67060021 -16.21575324 11.93878408 -14 10 C-13.34 10 -12.68 10 -12 10 C-12 9.34 -12 8.68 -12 8 C-10.13671875 6.4921875 -10.13671875 6.4921875 -7.6875 4.875 C-6.88699219 4.33617187 -6.08648438 3.79734375 -5.26171875 3.2421875 C-3 2 -3 2 0 2 C0 1.34 0 0.68 0 0 Z " fill="#010E1B" transform="translate(777,647)"/>
<path d="M0 0 C-0.92941406 0.61746094 -1.85882813 1.23492187 -2.81640625 1.87109375 C-10.12004505 6.83097601 -16.17021356 11.45851783 -21 19 C-21.50273437 19.77214844 -22.00546875 20.54429687 -22.5234375 21.33984375 C-23.71335798 23.21018837 -24.87183093 25.09199055 -26 27 C-26.33 26.34 -26.66 25.68 -27 25 C-23.41382812 17.09826535 -10.74493298 -3.58164433 0 0 Z " fill="#06A9B6" transform="translate(380,240)"/>
<path d="M0 0 C-0.94359375 0.31130859 -0.94359375 0.31130859 -1.90625 0.62890625 C-8.91898026 3.15306669 -15.67490917 6.29330571 -19.125 13.27734375 C-19.89728797 15.50881043 -20.4999011 17.69350939 -21 20 C-21.226875 21.010625 -21.45375 22.02125 -21.6875 23.0625 C-21.790625 23.701875 -21.89375 24.34125 -22 25 C-22.33 25 -22.66 25 -23 25 C-23.77123231 18.15888381 -23.07736757 13.61908625 -18.91796875 8.046875 C-13.95995812 2.75563758 -7.4613012 -2.39827539 0 0 Z " fill="#04AEBB" transform="translate(498,323)"/>
<path d="M0 0 C6.86751361 3.05222827 10.81840878 7.98553283 15 14 C15.72123047 14.99773437 15.72123047 14.99773437 16.45703125 16.015625 C19.67294914 20.72365464 20.69491396 24.30506067 21 30 C18.44624385 26.82505993 16.62552847 23.51896339 14.8125 19.875 C14.28269531 18.82054687 13.75289062 17.76609375 13.20703125 16.6796875 C12 14 12 14 12 12 C11.34 12 10.68 12 10 12 C8.37890625 10.3203125 8.37890625 10.3203125 6.5625 8.125 C4.41599116 5.53806278 2.83223438 3.88815626 0 2 C0 1.34 0 0.68 0 0 Z " fill="#05ADBB" transform="translate(652,244)"/>
<path d="M0 0 C0.33 0.99 0.66 1.98 1 3 C-2.87699899 10.33447198 -9.85738733 16.01720602 -17 20 C-20.33984375 20.71875 -20.33984375 20.71875 -23 21 C-20.00215933 18.48568202 -16.93446171 16.32053502 -13.625 14.25 C-7.88290802 10.48265084 -3.78733487 5.6810023 0 0 Z " fill="#011726" transform="translate(243,765)"/>
<path d="M0 0 C-0.95519531 0.42410156 -1.91039062 0.84820313 -2.89453125 1.28515625 C-16.76977312 6.59560582 -16.76977312 6.59560582 -27 16 C-27.66 15.67 -28.32 15.34 -29 15 C-28.34 14.01 -27.68 13.02 -27 12 C-26.34 12 -25.68 12 -25 12 C-25 11.34 -25 10.68 -25 10 C-19.25570974 4.9384936 -7.61922617 -2.53974206 0 0 Z " fill="#02111F" transform="translate(330,643)"/>
<path d="M0 0 C4.62120814 0.59087967 8.2472549 2.57059853 12.25 4.8125 C17.73845763 7.81950626 23.2261866 10.56892067 29 13 C25.50785206 14.16404931 24.95139616 13.84076934 21.69140625 12.453125 C20.86189453 12.1025 20.03238281 11.751875 19.17773438 11.390625 C18.31470703 11.01421875 17.45167969 10.6378125 16.5625 10.25 C15.70333984 9.8890625 14.84417969 9.528125 13.95898438 9.15625 C9.89426631 7.41557942 6.54013782 5.65544276 3 3 C2.01 2.67 1.02 2.34 0 2 C0 1.34 0 0.68 0 0 Z " fill="#04ACBA" transform="translate(448,435)"/>
<path d="M0 0 C0.66 0.33 1.32 0.66 2 1 C-5.38280407 7.12338455 -14.06082582 13.61935507 -24 13 C-21.62533238 10.62533238 -19.62763266 9.95913634 -16.5 8.75 C-11.27553847 6.64762632 -6.66178123 4.12731906 -1.9609375 1.0390625 C-1.31382812 0.69617188 -0.66671875 0.35328125 0 0 Z " fill="#061726" transform="translate(874,774)"/>
<path d="M0 0 C4.34025427 2.07858331 8.45809461 4.55361286 12.60351562 6.99023438 C16.63283639 9.32346156 20.6885813 11.23899799 25 13 C25 13.33 25 13.66 25 14 C19.73079369 13.49975889 15.9895806 12.25910995 11.375 9.6875 C9.74691406 8.79611328 9.74691406 8.79611328 8.0859375 7.88671875 C5.16425046 6.10042149 2.54336736 4.29281258 0 2 C0 1.34 0 0.68 0 0 Z " fill="#021826" transform="translate(765,773)"/>
<path d="M0 0 C7.7696064 0.96949394 12.9576573 7.43752318 17.625 13.3125 C19.1015625 15.23828125 19.1015625 15.23828125 20 17 C19.67 17.99 19.34 18.98 19 20 C18.55011719 19.38253906 18.10023438 18.76507812 17.63671875 18.12890625 C13.04035541 12.07718138 8.13528386 7.36138114 2.125 2.71484375 C1.42375 2.14894531 0.7225 1.58304688 0 1 C0 0.67 0 0.34 0 0 Z " fill="#02182A" transform="translate(403,652)"/>
<path d="M0 0 C9.3543278 1.42277363 16.31386226 8.77224996 23 15 C22.34 15.66 21.68 16.32 21 17 C20.13375 16.030625 19.2675 15.06125 18.375 14.0625 C14.27264484 9.9091839 9.56840081 6.97254221 4.62451172 3.93383789 C3.07009597 2.97654782 1.53318591 1.9909357 0 1 C0 0.67 0 0.34 0 0 Z " fill="#041220" transform="translate(861,647)"/>
<path d="M0 0 C-1 2 -1 2 -3.265625 2.7890625 C-4.25046875 3.06492187 -5.2353125 3.34078125 -6.25 3.625 C-12.7332685 5.65393654 -17.78378982 8.74888601 -23.3828125 12.48828125 C-24.24648438 12.98714844 -25.11015625 13.48601562 -26 14 C-26.66 13.67 -27.32 13.34 -28 13 C-20.41637575 6.83565738 -10.18015719 -0.58172327 0 0 Z " fill="#04AAB8" transform="translate(484,291)"/>
<path d="M0 0 C0.66 0.33 1.32 0.66 2 1 C2.13204834 1.63647461 2.26409668 2.27294922 2.40014648 2.92871094 C2.80438091 5.10095444 2.80438091 5.10095444 4.58227539 6.18847656 C5.24735107 6.50268555 5.91242676 6.81689453 6.59765625 7.140625 C7.31630859 7.48867188 8.03496094 7.83671875 8.77539062 8.1953125 C9.53013672 8.54335938 10.28488281 8.89140625 11.0625 9.25 C11.82111328 9.61351562 12.57972656 9.97703125 13.36132812 10.3515625 C15.23486161 11.24708794 17.11668803 12.12522601 19 13 C19 13.33 19 13.66 19 14 C11.65237385 13.67343884 4.57011589 10.31074849 -0.828125 5.3046875 C-1.21484375 4.87414062 -1.6015625 4.44359375 -2 4 C-1.34 2.68 -0.68 1.36 0 0 Z " fill="#031624" transform="translate(133,771)"/>
<path d="M0 0 C1 3 1 3 0 5.1875 C-1.42695798 9.20081933 -0.82086174 11.82728618 0 16 C0.66 16.66 1.32 17.32 2 18 C1.67 18.99 1.34 19.98 1 21 C-4.35714286 15.64285714 -4.35714286 15.64285714 -4.5 11 C-4.23988343 6.8933111 -2.97797635 2.97797635 0 0 Z " fill="#011C2B" transform="translate(172,672)"/>
<path d="M0 0 C0.82371094 -0.01224609 1.64742188 -0.02449219 2.49609375 -0.03710938 C4.62370714 -0.04233265 6.75091677 0.0648768 8.875 0.1875 C9.535 0.8475 10.195 1.5075 10.875 2.1875 C1.635 2.5175 -7.605 2.8475 -17.125 3.1875 C-11.16734341 0.20867171 -6.54636563 0.0051709 0 0 Z " fill="#031B2A" transform="translate(356.125,636.8125)"/>
<path d="M0 0 C4.15038022 1.5576019 6.47881228 4.59240988 9.1875 7.9375 C9.86329102 8.74477539 9.86329102 8.74477539 10.55273438 9.56835938 C12.58155349 12.03518441 13.98106802 13.94320407 15 17 C15.66 17.33 16.32 17.66 17 18 C16.67 18.66 16.34 19.32 16 20 C12.01095884 16.17868818 8.57432051 12.1090053 5.1875 7.75 C4.68541016 7.11320313 4.18332031 6.47640625 3.66601562 5.8203125 C0 1.13180272 0 1.13180272 0 0 Z " fill="#011422" transform="translate(560,713)"/>
<path d="M0 0 C0.33 0 0.66 0 1 0 C0.85317309 8.66278798 -2.67814124 14.69910543 -7 22 C-7.66 22 -8.32 22 -9 22 C-7.95946459 18.53154863 -6.71847298 15.33543038 -5.0625 12.125 C-3.02986545 8.18153672 -1.4916224 4.17654273 0 0 Z " fill="#031521" transform="translate(433,735)"/>
<path d="M0 0 C0.66 0.33 1.32 0.66 2 1 C-3.08715686 7.59955485 -10.40367375 15.58745813 -19 17 C-16.59173919 14.39105079 -14.05158853 12.26187869 -11.1875 10.1875 C-7.05533303 7.15621053 -3.51760616 3.71547151 0 0 Z " fill="#05AAB7" transform="translate(664,522)"/>
<path d="M0 0 C6.84840775 0.62258252 16.03619501 2.03619501 21 7 C14.00822819 6.4621714 7.4680894 4.74246991 1 2 C0.67 1.34 0.34 0.68 0 0 Z " fill="#011728" transform="translate(177,694)"/>
<path d="M0 0 C0 0.99 0 1.98 0 3 C-1.89385437 3.50744423 -3.79018666 4.00564574 -5.6875 4.5 C-6.74324219 4.7784375 -7.79898438 5.056875 -8.88671875 5.34375 C-11.71142672 5.9391715 -14.12836708 6.12786492 -17 6 C-17 5.34 -17 4.68 -17 4 C-11.39 2.68 -5.78 1.36 0 0 Z " fill="#021626" transform="translate(217,786)"/>
<path d="M0 0 C3.0831351 1.19899698 6.06279492 2.47700477 9 4 C8.67 4.99 8.34 5.98 8 7 C5.36 6.01 2.72 5.02 0 4 C-0.33 4.99 -0.66 5.98 -1 7 C-1.625 5.1875 -1.625 5.1875 -2 3 C-1.34 2.01 -0.68 1.02 0 0 Z " fill="#041A2A" transform="translate(143,748)"/>
<path d="M0 0 C12.2983871 1.47580645 12.2983871 1.47580645 16 6 C10.47293087 5.27275406 5.30039859 3.66554027 0 2 C0 1.34 0 0.68 0 0 Z " fill="#01192A" transform="translate(192,730)"/>
<path d="M0 0 C0.66 0 1.32 0 2 0 C0.46781315 3.63061667 -1.7183144 5.9863773 -4.5 8.75 C-5.69109375 9.94882812 -5.69109375 9.94882812 -6.90625 11.171875 C-9 13 -9 13 -11 13 C-11 12.34 -11 11.68 -11 11 C-10.34 11 -9.68 11 -9 11 C-8.731875 10.360625 -8.46375 9.72125 -8.1875 9.0625 C-7 7 -7 7 -4 6 C-2.90833725 4.06669397 -2.90833725 4.06669397 -2 2 C-1.34 1.34 -0.68 0.68 0 0 Z " fill="#0B1B28" transform="translate(882,665)"/>
<path d="M0 0 C3 2 3 2 3.68359375 3.734375 C4.08321159 6.59583606 4.09389763 9.361418 4.0625 12.25 C4.05347656 13.32765625 4.04445313 14.4053125 4.03515625 15.515625 C4.02355469 16.33546875 4.01195312 17.1553125 4 18 C1.64626599 14.46939899 1.34221585 11.41404244 0.875 7.3125 C0.78863281 6.61060547 0.70226562 5.90871094 0.61328125 5.18554688 C0.40173125 3.45788855 0.199914 1.7290434 0 0 Z " fill="#02121E" transform="translate(432,690)"/>
<path d="M0 0 C-2.06069917 1.12840628 -4.12343096 2.25278771 -6.1875 3.375 C-7.33605469 4.00148438 -8.48460937 4.62796875 -9.66796875 5.2734375 C-12.41513062 6.69693755 -15.10520381 7.92058447 -18 9 C-13.641505 4.07911855 -6.94681446 -2.55189102 0 0 Z " fill="#01101E" transform="translate(167,643)"/>
<path d="M0 0 C4.21814817 3.9700218 7.61227103 8.30840284 11 13 C10.01 13 9.02 13 8 13 C5.95703125 10.91796875 5.95703125 10.91796875 3.8125 8.1875 C3.09707031 7.29417969 2.38164062 6.40085937 1.64453125 5.48046875 C0 3 0 3 0 0 Z " fill="#001321" transform="translate(509,698)"/>
<path d="M0 0 C3 1 3 1 4.38671875 3.109375 C4.81597656 3.98078125 5.24523437 4.8521875 5.6875 5.75 C6.12449219 6.61109375 6.56148438 7.4721875 7.01171875 8.359375 C8.04127438 11.11028252 8.19360389 13.09070905 8 16 C5.70351643 13.10414095 3.95652443 10.1827969 2.3125 6.875 C1.65701172 5.57175781 1.65701172 5.57175781 0.98828125 4.2421875 C0 2 0 2 0 0 Z " fill="#021826" transform="translate(424,673)"/>
<path d="M0 0 C1.16161779 2.86578759 0.9946154 4.01630163 0.00390625 7.015625 C-0.70958984 8.61664062 -0.70958984 8.61664062 -1.4375 10.25 C-1.91058594 11.32765625 -2.38367188 12.4053125 -2.87109375 13.515625 C-3.24363281 14.33546875 -3.61617187 15.1553125 -4 16 C-4.66 16 -5.32 16 -6 16 C-5.37183502 12.05050296 -4.1354471 8.80107972 -2.4375 5.1875 C-1.98246094 4.21167969 -1.52742187 3.23585938 -1.05859375 2.23046875 C-0.70925781 1.49441406 -0.35992187 0.75835938 0 0 Z " fill="#021625" transform="translate(238,660)"/>
<path d="M0 0 C2.86724686 0.57344937 3.8614515 0.8614515 6 3 C5.88679697 6.28288776 4.71715137 7.30354487 2.4375 9.75 C1.2309375 10.86375 1.2309375 10.86375 0 12 C-0.99 11.67 -1.98 11.34 -3 11 C-1.02 9.35 0.96 7.7 3 6 C2.5359375 5.071875 2.5359375 5.071875 2.0625 4.125 C1.375 2.75 0.6875 1.375 0 0 Z " fill="#081724" transform="translate(879,761)"/>
<path d="M0 0 C5.72398793 0.74660712 11.34853777 1.82877141 17 3 C17 3.33 17 3.66 17 4 C10.48208608 4.3540919 5.82478551 4.03901852 0 1 C0 0.67 0 0.34 0 0 Z " fill="#011220" transform="translate(159,787)"/>
<path d="M0 0 C6.2049038 0.2757735 10.10160999 1.10640794 15 5 C13 6 13 6 9.9609375 5.00390625 C8.77757812 4.52824219 7.59421875 4.05257812 6.375 3.5625 C5.18648438 3.08941406 3.99796875 2.61632812 2.7734375 2.12890625 C1.85820312 1.75636719 0.94296875 1.38382813 0 1 C0 0.67 0 0.34 0 0 Z " fill="#021625" transform="translate(379,641)"/>
<path d="M0 0 C6.16456078 0.38528505 9.98627748 2.47086025 15 6 C12 7 12 7 9.08203125 5.78515625 C7.46361328 4.93244141 7.46361328 4.93244141 5.8125 4.0625 C4.72582031 3.49660156 3.63914062 2.93070313 2.51953125 2.34765625 C1.68808594 1.90292969 0.85664062 1.45820313 0 1 C0 0.67 0 0.34 0 0 Z " fill="#05ADBB" transform="translate(636,236)"/>
<path d="M0 0 C4.55105375 0.54179211 8.06386006 1.62000841 12 4 C12.33 4.99 12.66 5.98 13 7 C8.50202887 5.31326082 4.27113698 3.18326108 0 1 C0 0.67 0 0.34 0 0 Z " fill="#011425" transform="translate(219,707)"/>
<path d="M0 0 C5.78591511 -0.10477512 11.29309366 0.00749455 17 1 C17 1.33 17 1.66 17 2 C10.77104914 3.13253652 6.08251096 2.70366626 0 1 C0 0.67 0 0.34 0 0 Z " fill="#05AEBE" transform="translate(391,543)"/>
<path d="M0 0 C5.66442374 0.36504064 10.00703705 1.0554321 15 4 C15 4.33 15 4.66 15 5 C11.04170312 5.22822613 8.32148459 4.55050009 4.6875 3 C3.80449219 2.62875 2.92148437 2.2575 2.01171875 1.875 C1.34785156 1.58625 0.68398438 1.2975 0 1 C0 0.67 0 0.34 0 0 Z " fill="#04AEBB" transform="translate(549,292)"/>
<path d="M0 0 C0.33 0.99 0.66 1.98 1 3 C-0.07421875 4.97265625 -0.07421875 4.97265625 -1.6875 7.0625 C-2.20699219 7.75472656 -2.72648438 8.44695312 -3.26171875 9.16015625 C-5.06223358 11.0658697 -6.60035853 11.99100043 -9 13 C-7.43754389 9.16488047 -4.89634216 6.89634216 -2 4 C-0.70480005 1.83379456 -0.70480005 1.83379456 0 0 Z " fill="#03A9B8" transform="translate(547,436)"/>
<path d="M0 0 C0.66 0 1.32 0 2 0 C-0.89066059 9.59453303 -0.89066059 9.59453303 -4 13 C-3.40895235 8.15340923 -2.02055843 4.39251833 0 0 Z " fill="#031522" transform="translate(139,756)"/>
<path d="M0 0 C4.38889325 0.66498383 7.9811485 2.18757677 12 4 C11.67 4.66 11.34 5.32 11 6 C9.53775201 5.57576756 8.08026588 5.13509755 6.625 4.6875 C5.81289062 4.44386719 5.00078125 4.20023438 4.1640625 3.94921875 C2 3 2 3 0 0 Z " fill="#001626" transform="translate(218,672)"/>
<path d="M0 0 C0.66 0 1.32 0 2 0 C0.44499019 3.81684226 -2.03595495 6.19195732 -5 9 C-5.99 8.67 -6.98 8.34 -8 8 C-7.50628906 7.59007812 -7.01257813 7.18015625 -6.50390625 6.7578125 C-5.86324219 6.21898437 -5.22257812 5.68015625 -4.5625 5.125 C-3.92441406 4.59132813 -3.28632813 4.05765625 -2.62890625 3.5078125 C-0.89194996 2.0777243 -0.89194996 2.0777243 0 0 Z " fill="#02111E" transform="translate(416,765)"/>
<path d="M0 0 C0.33 0 0.66 0 1 0 C1.08159574 4.16138263 0.98248524 7.9472484 0 12 C-0.66 11.67 -1.32 11.34 -2 11 C-2.19622241 6.78121808 -1.80230168 3.82989106 0 0 Z " fill="#03AFBD" transform="translate(350,274)"/>
<path d="M0 0 C2.23551759 3.35327639 2.17283528 3.90743657 1.625 7.6875 C1.51414062 8.49574219 1.40328125 9.30398438 1.2890625 10.13671875 C1.19367188 10.75160156 1.09828125 11.36648438 1 12 C-1 10 -1 10 -1.1875 6.5625 C-1 3 -1 3 0 0 Z " fill="#000F1D" transform="translate(436,709)"/>
<path d="M0 0 C3.78717347 1.48781815 5.77407001 3.61988409 8 7 C7.67 7.99 7.34 8.98 7 10 C5.83043409 8.52312468 4.66441854 7.04343707 3.5 5.5625 C2.8503125 4.73878906 2.200625 3.91507813 1.53125 3.06640625 C0 1 0 1 0 0 Z " fill="#01121F" transform="translate(415,662)"/>
<path d="M0 0 C3.35111834 2.23407889 4.81553956 3.26215824 5.8125 7.25 C5.874375 8.1575 5.93625 9.065 6 10 C5.67 9.01 5.34 8.02 5 7 C4.34 7 3.68 7 3 7 C0.70351351 4.4385343 0 3.52032428 0 0 Z " fill="#001325" transform="translate(209,736)"/>
<path d="M0 0 C2.97 0.33 5.94 0.66 9 1 C9.33 1.99 9.66 2.98 10 4 C6.7 3.01 3.4 2.02 0 1 C0 0.67 0 0.34 0 0 Z " fill="#021525" transform="translate(207,703)"/>
<path d="M0 0 C1.258125 -0.020625 2.51625 -0.04125 3.8125 -0.0625 C4.52019531 -0.07410156 5.22789062 -0.08570313 5.95703125 -0.09765625 C8 0 8 0 11 1 C11 1.66 11 2.32 11 3 C9.741875 2.87625 8.48375 2.7525 7.1875 2.625 C6.12595703 2.52058594 6.12595703 2.52058594 5.04296875 2.4140625 C3 2 3 2 0 0 Z " fill="#031626" transform="translate(840,640)"/>
<path d="M0 0 C3.91402949 1.26941497 5.79072873 2.51167694 8 6 C4.65750371 5.40312566 2.53563658 4.26396123 0 2 C0 1.34 0 0.68 0 0 Z " fill="#022131" transform="translate(233,714)"/>
<path d="M0 0 C-3.13498292 1.85776765 -5.37471432 2.20140476 -9 2 C-9 1.34 -9 0.68 -9 0 C-5.52176885 -1.15941038 -3.54104422 -0.70820884 0 0 Z " fill="#021E32" transform="translate(377,790)"/>
<path d="M0 0 C2.97 0.33 5.94 0.66 9 1 C9 1.66 9 2.32 9 3 C2.25 2.25 2.25 2.25 0 0 Z " fill="#021829" transform="translate(162,758)"/>
<path d="M0 0 C1.875 0.3125 1.875 0.3125 4 1 C4.66 1.99 5.32 2.98 6 4 C5.67 4.99 5.34 5.98 5 7 C4.67 6.01 4.34 5.02 4 4 C3.34 4 2.68 4 2 4 C1.34 2.68 0.68 1.36 0 0 Z " fill="#022331" transform="translate(518,712)"/>
<path d="M0 0 C-1.39332574 3.36720387 -2.9789286 4.9859524 -6 7 C-5.37162381 3.35541809 -4.14650034 0 0 0 Z " fill="#04AEBC" transform="translate(456,305)"/>
<path d="M0 0 C1 4 1 4 1 4 Z " fill="#004F4F" transform="translate(656,745)"/>
<path d="M0 0 C1 4 1 4 1 4 Z " fill="#004A4A" transform="translate(656,736)"/>
<path d="M0 0 C1 4 1 4 1 4 Z " fill="#002A6A" transform="translate(656,705)"/>
<path d="" fill="#00007F" transform="translate(0,0)"/>
<path d="" fill="#005555" transform="translate(0,0)"/>
<path d="" fill="#005555" transform="translate(0,0)"/>
<path d="" fill="#005555" transform="translate(0,0)"/>
<path d="" fill="#003F3F" transform="translate(0,0)"/>
<path d="" fill="#003F3F" transform="translate(0,0)"/>
<path d="" fill="#007FFF" transform="translate(0,0)"/>
<path d="" fill="#00AAAA" transform="translate(0,0)"/>
<path d="" fill="#007FFF" transform="translate(0,0)"/>
<path d="" fill="#00FFFF" transform="translate(0,0)"/>
</svg>
